<?xml version="1.0" encoding="UTF-8" standalone="no"?>
<!-- Created with Inkscape (http://www.inkscape.org/) -->

<svg
   xmlns:dc="http://purl.org/dc/elements/1.1/"
   xmlns:cc="http://creativecommons.org/ns#"
   xmlns:rdf="http://www.w3.org/1999/02/22-rdf-syntax-ns#"
   xmlns:svg="http://www.w3.org/2000/svg"
   xmlns="http://www.w3.org/2000/svg"
   xmlns:sodipodi="http://sodipodi.sourceforge.net/DTD/sodipodi-0.dtd"
   xmlns:inkscape="http://www.inkscape.org/namespaces/inkscape"
   width="200"
   height="200"
   viewBox="0 0 200 200"
   id="svg8509"
   version="1.1"
   inkscape:version="0.91 r13725"
   sodipodi:docname="f1.svg">
  <defs
     id="defs8511" />
  <sodipodi:namedview
     id="base"
     pagecolor="#ffffff"
     bordercolor="#666666"
     borderopacity="1.0"
     inkscape:pageopacity="0.0"
     inkscape:pageshadow="2"
     inkscape:zoom="3.0656508"
     inkscape:cx="191.7062"
     inkscape:cy="79.514194"
     inkscape:document-units="px"
     inkscape:current-layer="layer1"
     showgrid="false"
     units="px"
     inkscape:window-width="1920"
     inkscape:window-height="1062"
     inkscape:window-x="0"
     inkscape:window-y="18"
     inkscape:window-maximized="1" />
  <metadata
     id="metadata8514">
    <rdf:RDF>
      <cc:Work
         rdf:about="">
        <dc:format>image/svg+xml</dc:format>
        <dc:type
           rdf:resource="http://purl.org/dc/dcmitype/StillImage" />
        <dc:title />
      </cc:Work>
    </rdf:RDF>
  </metadata>
  <g
     inkscape:label="Layer 1"
     inkscape:groupmode="layer"
     id="layer1"
     transform="translate(0,-852.36216)">
    <rect
       style="opacity:1;fill:#f1efee;fill-opacity:1;stroke:none;stroke-width:1.18636501;stroke-miterlimit:4;stroke-dasharray:none;stroke-opacity:1"
       id="rect3340"
       width="200"
       height="200"
       x="0"
       y="851.76892" />
    <g
       transform="matrix(2.4940455,0,0,-2.4940455,-420.54745,4586.9681)"
       id="g8395">
      <g
         transform="translate(238.8716,1467.2529)"
         id="g2376">
        <path
           inkscape:connector-curvature="0"
           id="path2378"
           style="fill:#303263;fill-opacity:1;fill-rule:nonzero;stroke:none"
           d="m 0,0 c 0,-16.654 -30.156,-50.035 -30.156,-50.035 0,0 -30.155,33.381 -30.155,50.035 0,16.654 13.501,30.156 30.155,30.156 C -13.5,30.156 0,16.654 0,0" />
      </g>
      <g
         transform="translate(230.2485,1466.7139)"
         id="g2380">
        <path
           inkscape:connector-curvature="0"
           id="path2382"
           style="fill:#ffffff;fill-opacity:1;fill-rule:nonzero;stroke:none"
           d="m 0,0 c 0,-11.891 -9.641,-21.531 -21.533,-21.531 -11.891,0 -21.533,9.64 -21.533,21.531 0,11.895 9.642,21.535 21.533,21.535 C -9.641,21.535 0,11.895 0,0" />
      </g>
      <g
         transform="translate(210.3716,1456.1787)"
         id="g2384">
        <path
           inkscape:connector-curvature="0"
           id="path2386"
           style="fill:#303263;fill-opacity:1;fill-rule:nonzero;stroke:none"
           d="M 0,0 C 3.086,0.545 4.629,1.871 4.629,3.98 4.629,5.75 3.086,7.316 0,8.67 L 0,0 Z m -2.381,21.752 c -1.396,-0.244 -2.474,-0.738 -3.232,-1.486 -0.756,-0.746 -1.135,-1.623 -1.135,-2.631 0,-1.008 0.252,-1.842 0.754,-2.502 0.502,-0.66 1.705,-1.438 3.613,-2.328 l 0,8.947 z M 0,-6.584 l -2.381,0 0,3.928 c -3.348,0 -6.057,0.531 -8.123,1.597 l 0,3.145 c 0.889,-0.637 2.141,-1.176 3.756,-1.617 1.615,-0.44 3.072,-0.649 4.367,-0.625 l 0,9.799 c -3.553,1.367 -5.801,2.597 -6.748,3.693 -0.945,1.094 -1.418,2.394 -1.418,3.898 0,1.715 0.764,3.258 2.293,4.631 1.527,1.373 3.484,2.18 5.873,2.424 l 0,3.371 2.381,0 0,-3.301 c 3.086,-0.07 5.195,-0.414 6.332,-1.027 l 0,-3.074 C 4.803,21.254 2.691,21.787 0,21.855 L 0,11.762 C 2.926,10.594 5.063,9.461 6.408,8.367 7.754,7.271 8.428,5.902 8.428,4.258 8.428,2.473 7.672,0.98 6.156,-0.225 4.643,-1.43 2.59,-2.188 0,-2.5 l 0,-4.084 z" />
      </g>
    </g>
  </g>
</svg>
