<?xml version="1.0" encoding="UTF-8" standalone="no"?>
<!-- Created with Inkscape (http://www.inkscape.org/) -->

<svg
   xmlns:dc="http://purl.org/dc/elements/1.1/"
   xmlns:cc="http://creativecommons.org/ns#"
   xmlns:rdf="http://www.w3.org/1999/02/22-rdf-syntax-ns#"
   xmlns:svg="http://www.w3.org/2000/svg"
   xmlns="http://www.w3.org/2000/svg"
   xmlns:sodipodi="http://sodipodi.sourceforge.net/DTD/sodipodi-0.dtd"
   xmlns:inkscape="http://www.inkscape.org/namespaces/inkscape"
   width="200"
   height="200"
   viewBox="0 0 200 200"
   id="svg8509"
   version="1.1"
   inkscape:version="0.91 r13725"
   sodipodi:docname="f2.svg">
  <defs
     id="defs8511" />
  <sodipodi:namedview
     id="base"
     pagecolor="#ffffff"
     bordercolor="#666666"
     borderopacity="1.0"
     inkscape:pageopacity="0.0"
     inkscape:pageshadow="2"
     inkscape:zoom="2.6077019"
     inkscape:cx="68.971627"
     inkscape:cy="152.85091"
     inkscape:document-units="px"
     inkscape:current-layer="layer1"
     showgrid="false"
     units="px"
     inkscape:window-width="960"
     inkscape:window-height="1062"
     inkscape:window-x="0"
     inkscape:window-y="18"
     inkscape:window-maximized="0" />
  <metadata
     id="metadata8514">
    <rdf:RDF>
      <cc:Work
         rdf:about="">
        <dc:format>image/svg+xml</dc:format>
        <dc:type
           rdf:resource="http://purl.org/dc/dcmitype/StillImage" />
        <dc:title />
      </cc:Work>
    </rdf:RDF>
  </metadata>
  <g
     inkscape:label="Layer 1"
     inkscape:groupmode="layer"
     id="layer1"
     transform="translate(0,-852.36216)">
    <rect
       y="852.36218"
       x="0"
       height="200"
       width="200"
       id="rect3340"
       style="opacity:1;fill:#f1efee;fill-opacity:1;stroke:none;stroke-width:1.18636501;stroke-miterlimit:4;stroke-dasharray:none;stroke-opacity:1" />
    <g
       transform="matrix(2.1034697,0,0,-2.1034697,-906.7532,4017.777)"
       id="g8403">
      <path
         inkscape:connector-curvature="0"
         id="path2388"
         style="fill:#303263;fill-opacity:1;fill-rule:nonzero;stroke:none"
         d="m 437.117,1456.421 -6.042,0 0,31.423 6.042,0 0,-31.423 z" />
      <path
         inkscape:connector-curvature="0"
         id="path2390"
         style="fill:#303263;fill-opacity:1;fill-rule:nonzero;stroke:none"
         d="m 446.175,1456.421 -3.019,0 0,31.423 3.019,0 0,-31.423 z" />
      <path
         inkscape:connector-curvature="0"
         id="path2392"
         style="fill:#303263;fill-opacity:1;fill-rule:nonzero;stroke:none"
         d="m 458.86,1456.421 -3.021,0 0,31.423 3.021,0 0,-31.423 z" />
      <path
         inkscape:connector-curvature="0"
         id="path2394"
         style="fill:#303263;fill-opacity:1;fill-rule:nonzero;stroke:none"
         d="m 481.258,1456.421 -14.741,0 0,31.423 14.741,0 0,-31.423 z" />
      <path
         inkscape:connector-curvature="0"
         id="path2396"
         style="fill:#303263;fill-opacity:1;fill-rule:nonzero;stroke:none"
         d="m 492.936,1456.421 -7.02,0 0,31.423 7.02,0 0,-31.423 z" />
      <path
         inkscape:connector-curvature="0"
         id="path2398"
         style="fill:#303263;fill-opacity:1;fill-rule:nonzero;stroke:none"
         d="m 501.396,1456.421 -3.51,0 0,31.423 3.51,0 0,-31.423 z" />
      <path
         inkscape:connector-curvature="0"
         id="path2400"
         style="fill:#303263;fill-opacity:1;fill-rule:nonzero;stroke:none"
         d="m 509.979,1456.421 -1.752,0 0,31.423 1.752,0 0,-31.423 z" />
      <path
         inkscape:connector-curvature="0"
         id="path2402"
         style="fill:#303263;fill-opacity:1;fill-rule:nonzero;stroke:none"
         d="m 514.445,1456.421 -3.51,0 0,31.423 3.51,0 0,-31.423 z" />
      <path
         inkscape:connector-curvature="0"
         id="path2404"
         style="fill:#303263;fill-opacity:1;fill-rule:nonzero;stroke:none"
         d="m 526.156,1456.421 -6.037,0 0,31.423 6.037,0 0,-31.423 z" />
      <path
         inkscape:connector-curvature="0"
         id="path2406"
         style="fill:#303263;fill-opacity:1;fill-rule:nonzero;stroke:none"
         d="m 437.117,1426.783 -6.042,0 0,31.423 6.042,0 0,-31.423 z" />
      <path
         inkscape:connector-curvature="0"
         id="path2408"
         style="fill:#303263;fill-opacity:1;fill-rule:nonzero;stroke:none"
         d="m 449.198,1426.783 -6.042,0 0,4.916 6.042,0 0,-4.916 z" />
      <path
         inkscape:connector-curvature="0"
         id="path2410"
         style="fill:#303263;fill-opacity:1;fill-rule:nonzero;stroke:none"
         d="m 449.198,1438.09 -6.042,0 0,20.116 6.042,0 0,-20.116 z" />
      <path
         inkscape:connector-curvature="0"
         id="path2412"
         style="fill:#303263;fill-opacity:1;fill-rule:nonzero;stroke:none"
         d="m 458.86,1426.783 -3.021,0 0,4.916 3.021,0 0,-4.916 z" />
      <path
         inkscape:connector-curvature="0"
         id="path2414"
         style="fill:#303263;fill-opacity:1;fill-rule:nonzero;stroke:none"
         d="m 458.86,1438.09 -3.021,0 0,20.116 3.021,0 0,-20.116 z" />
      <path
         inkscape:connector-curvature="0"
         id="path2416"
         style="fill:#303263;fill-opacity:1;fill-rule:nonzero;stroke:none"
         d="m 473.852,1426.783 -8.818,0 0,4.916 8.818,0 0,-4.916 z" />
      <path
         inkscape:connector-curvature="0"
         id="path2418"
         style="fill:#303263;fill-opacity:1;fill-rule:nonzero;stroke:none"
         d="m 483.025,1426.783 -3.485,0 0,4.916 3.485,0 0,-4.916 z" />
      <path
         inkscape:connector-curvature="0"
         id="path2420"
         style="fill:#303263;fill-opacity:1;fill-rule:nonzero;stroke:none"
         d="m 478.616,1426.783 -1.744,0 0,4.916 1.744,0 0,-4.916 z" />
      <path
         inkscape:connector-curvature="0"
         id="path2422"
         style="fill:#303263;fill-opacity:1;fill-rule:nonzero;stroke:none"
         d="m 481.258,1438.09 -16.036,0 0,20.116 16.036,0 0,-20.116 z" />
      <path
         inkscape:connector-curvature="0"
         id="path2424"
         style="fill:#303263;fill-opacity:1;fill-rule:nonzero;stroke:none"
         d="m 496.07,1426.783 -10.154,0 0,4.916 10.154,0 0,-4.916 z" />
      <path
         inkscape:connector-curvature="0"
         id="path2426"
         style="fill:#303263;fill-opacity:1;fill-rule:nonzero;stroke:none"
         d="m 496.07,1438.09 -10.154,0 0,20.116 10.154,0 0,-20.116 z" />
      <path
         inkscape:connector-curvature="0"
         id="path2428"
         style="fill:#303263;fill-opacity:1;fill-rule:nonzero;stroke:none"
         d="m 506.469,1426.783 -5.072,0 0,4.916 5.072,0 0,-4.916 z" />
      <path
         inkscape:connector-curvature="0"
         id="path2430"
         style="fill:#303263;fill-opacity:1;fill-rule:nonzero;stroke:none"
         d="m 506.469,1438.09 -5.072,0 0,20.116 5.072,0 0,-20.116 z" />
      <path
         inkscape:connector-curvature="0"
         id="path2432"
         style="fill:#303263;fill-opacity:1;fill-rule:nonzero;stroke:none"
         d="m 514.621,1426.783 -2.531,0 0,4.916 2.531,0 0,-4.916 z" />
      <path
         inkscape:connector-curvature="0"
         id="path2434"
         style="fill:#303263;fill-opacity:1;fill-rule:nonzero;stroke:none"
         d="m 514.621,1438.09 -2.531,0 0,20.116 2.531,0 0,-20.116 z" />
      <path
         inkscape:connector-curvature="0"
         id="path2436"
         style="fill:#303263;fill-opacity:1;fill-rule:nonzero;stroke:none"
         d="m 526.156,1426.783 -7.861,0 0,31.423 7.861,0 0,-31.423 z" />
      <path
         inkscape:connector-curvature="0"
         id="path2438"
         style="fill:#303263;fill-opacity:1;fill-rule:nonzero;stroke:none"
         d="m 453.521,1456.421 -3.021,0 0,31.423 3.021,0 0,-31.423 z" />
      <path
         inkscape:connector-curvature="0"
         id="path2440"
         style="fill:#303263;fill-opacity:1;fill-rule:nonzero;stroke:none"
         d="m 453.521,1426.783 -3.021,0 0,4.916 3.021,0 0,-4.916 z" />
      <path
         inkscape:connector-curvature="0"
         id="path2442"
         style="fill:#303263;fill-opacity:1;fill-rule:nonzero;stroke:none"
         d="m 453.521,1438.09 -3.021,0 0,20.116 3.021,0 0,-20.116 z" />
    </g>
  </g>
</svg>
