<?xml version="1.0" encoding="UTF-8" standalone="no"?>
<!-- Created with Inkscape (http://www.inkscape.org/) -->

<svg
   xmlns:dc="http://purl.org/dc/elements/1.1/"
   xmlns:cc="http://creativecommons.org/ns#"
   xmlns:rdf="http://www.w3.org/1999/02/22-rdf-syntax-ns#"
   xmlns:svg="http://www.w3.org/2000/svg"
   xmlns="http://www.w3.org/2000/svg"
   xmlns:sodipodi="http://sodipodi.sourceforge.net/DTD/sodipodi-0.dtd"
   xmlns:inkscape="http://www.inkscape.org/namespaces/inkscape"
   width="200"
   height="200"
   viewBox="0 0 200 200"
   id="svg8509"
   version="1.1"
   inkscape:version="0.91 r13725"
   sodipodi:docname="f3.svg">
  <defs
     id="defs8511" />
  <sodipodi:namedview
     id="base"
     pagecolor="#ffffff"
     bordercolor="#666666"
     borderopacity="1.0"
     inkscape:pageopacity="0.0"
     inkscape:pageshadow="2"
     inkscape:zoom="2.6077019"
     inkscape:cx="53.63245"
     inkscape:cy="152.85091"
     inkscape:document-units="px"
     inkscape:current-layer="layer1"
     showgrid="false"
     units="px"
     inkscape:window-width="960"
     inkscape:window-height="1062"
     inkscape:window-x="0"
     inkscape:window-y="18"
     inkscape:window-maximized="0" />
  <metadata
     id="metadata8514">
    <rdf:RDF>
      <cc:Work
         rdf:about="">
        <dc:format>image/svg+xml</dc:format>
        <dc:type
           rdf:resource="http://purl.org/dc/dcmitype/StillImage" />
        <dc:title />
      </cc:Work>
    </rdf:RDF>
  </metadata>
  <g
     inkscape:label="Layer 1"
     inkscape:groupmode="layer"
     id="layer1"
     transform="translate(0,-852.36216)">
    <rect
       y="852.36218"
       x="0"
       height="200"
       width="200"
       id="rect3340"
       style="opacity:1;fill:#f1efee;fill-opacity:1;stroke:none;stroke-width:1.18636501;stroke-miterlimit:4;stroke-dasharray:none;stroke-opacity:1" />
    <g
       transform="matrix(2.1317682,0,0,-2.1317682,-1519.6045,4068.7649)"
       id="g8433">
      <g
         transform="translate(735.3643,1434.8652)"
         id="g2526">
        <path
           inkscape:connector-curvature="0"
           id="path2528"
           style="fill:#303263;fill-opacity:1;fill-rule:nonzero;stroke:none"
           d="M 0,0 C 0.15,0.041 0.3,0.051 0.451,0.031 L 6.084,-0.73 c 0.406,-0.055 0.75,-0.319 0.904,-0.696 0.063,-0.152 1.554,-3.699 1.933,-4.83 0.236,-0.711 0.923,-1.314 1.771,-1.092 l 3.784,1.002 c 0.845,0.223 1.145,1.086 1.003,1.826 -0.228,1.168 -0.693,4.989 -0.71,5.151 -0.048,0.402 0.117,0.803 0.443,1.051 l 4.524,3.445 c 0.32,0.246 0.753,0.303 1.132,0.146 0.149,-0.06 3.704,-1.519 4.776,-2.05 0.388,-0.192 0.817,-0.243 1.206,-0.141 0.245,0.064 0.587,0.227 0.817,0.621 l 0.952,1.643 c 0.01,0.017 0.022,0.033 0.034,0.05 l 0.981,1.696 c 0.442,0.752 0.043,1.574 -0.577,1.994 -0.992,0.672 -4.015,3.039 -4.148,3.143 -0.318,0.25 -0.482,0.652 -0.428,1.056 l 0.761,5.633 c 0.056,0.404 0.321,0.75 0.694,0.906 0.154,0.063 3.698,1.549 4.831,1.932 0.712,0.238 1.313,0.92 1.088,1.767 l -0.5,1.891 -0.5,1.895 c -0.225,0.845 -1.084,1.146 -1.822,1 -1.173,-0.227 -4.987,-0.688 -5.151,-0.707 -0.405,-0.049 -0.806,0.121 -1.053,0.443 l -3.445,4.521 c -0.245,0.325 -0.302,0.756 -0.15,1.131 0.067,0.153 1.522,3.711 2.051,4.778 0.334,0.673 0.278,1.588 -0.478,2.025 l -3.384,1.971 c -0.397,0.23 -0.776,0.201 -1.022,0.136 -0.388,-0.103 -0.733,-0.357 -0.976,-0.718 -0.669,-0.991 -3.04,-4.018 -3.142,-4.145 -0.251,-0.32 -0.656,-0.484 -1.055,-0.43 L 5.593,38.076 C 5.191,38.131 4.846,38.398 4.688,38.773 4.623,38.922 3.139,42.469 2.757,43.6 2.519,44.313 1.833,44.912 0.986,44.689 l -3.781,-0.998 c -0.85,-0.224 -1.148,-1.086 -1.005,-1.826 0.232,-1.17 0.693,-4.986 0.711,-5.148 0.047,-0.404 -0.121,-0.809 -0.446,-1.053 l -4.52,-3.443 c -0.325,-0.25 -0.755,-0.305 -1.133,-0.151 -0.15,0.061 -3.708,1.522 -4.777,2.053 -0.392,0.19 -0.822,0.242 -1.204,0.141 -0.245,-0.067 -0.588,-0.227 -0.821,-0.623 l -1.968,-3.387 c -0.44,-0.754 -0.039,-1.576 0.582,-1.994 0.988,-0.668 4.015,-3.039 4.146,-3.143 0.319,-0.248 0.48,-0.654 0.427,-1.058 l -0.764,-5.633 c -0.054,-0.401 -0.317,-0.748 -0.693,-0.906 -0.151,-0.063 -3.698,-1.545 -4.83,-1.928 -0.709,-0.242 -1.314,-0.926 -1.091,-1.772 l 1.002,-3.787 c 0.224,-0.844 1.084,-1.142 1.823,-0.998 1.172,0.229 4.988,0.69 5.152,0.711 0.404,0.049 0.804,-0.123 1.049,-0.447 L -7.71,4.777 c 0.249,-0.326 0.306,-0.752 0.149,-1.129 -0.06,-0.156 -1.517,-3.711 -2.046,-4.779 -0.333,-0.674 -0.28,-1.584 0.478,-2.025 l 3.384,-1.969 c 0.4,-0.23 0.777,-0.199 1.022,-0.135 0.385,0.102 0.732,0.354 0.975,0.719 0.667,0.988 3.038,4.014 3.14,4.139 C -0.449,-0.197 -0.232,-0.061 0,0 M 15.063,-8.57 11.279,-9.572 C 9.356,-10.08 7.409,-8.969 6.74,-6.988 6.474,-6.201 5.57,-3.996 5.124,-2.922 L 0.8,-2.338 C 0.078,-3.256 -1.376,-5.143 -1.84,-5.83 -2.398,-6.654 -3.21,-7.24 -4.134,-7.486 -5.076,-7.736 -6.061,-7.604 -6.9,-7.111 l -3.385,1.968 c -1.719,0.997 -2.314,3.163 -1.385,5.032 0.369,0.746 1.286,2.941 1.733,4.021 l -2.645,3.469 c -1.155,-0.141 -3.519,-0.445 -4.336,-0.604 -2.051,-0.398 -3.978,0.75 -4.486,2.67 l -1,3.787 c -0.508,1.922 0.602,3.87 2.579,4.538 0.787,0.267 2.996,1.171 4.071,1.621 l 0.58,4.322 c -0.914,0.717 -2.803,2.174 -3.489,2.641 -1.73,1.166 -2.282,3.341 -1.286,5.058 l 1.972,3.383 c 0.492,0.844 1.28,1.441 2.22,1.689 0.926,0.246 1.922,0.139 2.815,-0.302 0.741,-0.371 2.94,-1.286 4.02,-1.733 l 3.468,2.643 c -0.141,1.16 -0.441,3.521 -0.602,4.34 -0.397,2.047 0.75,3.974 2.672,4.484 l 3.782,0.998 c 1.921,0.508 3.873,-0.6 4.54,-2.576 0.265,-0.791 1.17,-2.994 1.62,-4.068 l 4.323,-0.584 c 0.716,0.914 2.174,2.798 2.636,3.488 0.557,0.824 1.374,1.412 2.296,1.656 0.946,0.25 1.925,0.119 2.765,-0.373 l 3.389,-1.967 c 1.715,-1.002 2.309,-3.164 1.385,-5.033 -0.371,-0.746 -1.29,-2.945 -1.738,-4.021 l 2.642,-3.473 c 1.156,0.144 3.522,0.447 4.34,0.605 2.047,0.397 3.976,-0.75 4.486,-2.672 l 0.997,-3.785 c 0.51,-1.922 -0.6,-3.873 -2.576,-4.539 -0.789,-0.263 -2.998,-1.172 -4.07,-1.617 L 26.85,13.633 c 0.92,-0.715 2.805,-2.176 3.488,-2.643 1.737,-1.166 2.286,-3.34 1.288,-5.056 L 30.671,4.295 C 30.66,4.273 30.65,4.258 30.643,4.242 L 29.657,2.549 C 29.167,1.707 28.377,1.105 27.437,0.857 26.512,0.613 25.514,0.723 24.621,1.16 23.878,1.533 21.68,2.453 20.604,2.895 L 17.131,0.25 c 0.141,-1.154 0.447,-3.518 0.603,-4.332 0.395,-2.053 -0.75,-3.981 -2.671,-4.488" />
      </g>
      <g
         transform="translate(739.9053,1458.4434)"
         id="g2530">
        <path
           inkscape:connector-curvature="0"
           id="path2532"
           style="fill:#303263;fill-opacity:1;fill-rule:nonzero;stroke:none"
           d="M 0,0 C -2.703,-0.715 -4.32,-3.496 -3.605,-6.203 -2.89,-8.906 -0.11,-10.525 2.594,-9.811 5.301,-9.094 6.912,-6.314 6.2,-3.613 5.484,-0.904 2.708,0.713 0,0 m 3.183,-12.035 c -3.929,-1.039 -7.975,1.314 -9.011,5.244 -1.04,3.932 1.311,7.977 5.24,9.014 3.932,1.039 7.974,-1.315 9.014,-5.246 1.039,-3.93 -1.314,-7.973 -5.243,-9.012" />
      </g>
      <g
         transform="translate(738.5098,1463.7266)"
         id="g2534">
        <path
           inkscape:connector-curvature="0"
           id="path2536"
           style="fill:#303263;fill-opacity:1;fill-rule:nonzero;stroke:none"
           d="m 0,0 c -5.619,-1.484 -8.979,-7.266 -7.494,-12.883 1.484,-5.617 7.264,-8.978 12.88,-7.494 5.617,1.484 8.982,7.264 7.497,12.881 C 11.397,-1.877 5.616,1.484 0,0 m 5.975,-22.602 c -6.844,-1.808 -13.885,2.289 -15.695,9.129 -1.809,6.844 2.289,13.887 9.131,15.696 6.846,1.81 13.886,-2.289 15.696,-9.133 1.805,-6.842 -2.29,-13.881 -9.132,-15.692" />
      </g>
      <g
         transform="translate(799.251,1470.9258)"
         id="g2538">
        <path
           inkscape:connector-curvature="0"
           id="path2540"
           style="fill:#303263;fill-opacity:1;fill-rule:nonzero;stroke:none"
           d="m 0,0 c 0.11,-0.08 2.5,-1.959 3.29,-2.5 0.49,-0.34 0.8,-0.99 0.45,-1.58 L 2.96,-5.43 C 2.95,-5.439 2.94,-5.449 2.93,-5.469 L 2.17,-6.77 C 1.99,-7.08 1.71,-7.209 1.52,-7.26 1.21,-7.34 0.87,-7.299 0.56,-7.139 c -0.84,0.42 -3.66,1.59 -3.78,1.629 -0.301,0.131 -0.64,0.09 -0.9,-0.109 l -3.6,-2.721 c -0.26,-0.199 -0.39,-0.51 -0.35,-0.83 0.01,-0.129 0.37,-3.17 0.549,-4.09 0.111,-0.59 -0.129,-1.269 -0.799,-1.449 l -3.01,-0.791 c -0.67,-0.17 -1.21,0.311 -1.4,0.871 -0.3,0.9 -1.47,3.719 -1.52,3.84 -0.12,0.299 -0.39,0.51 -0.72,0.549 l -4.46,0.621 c -0.12,0.019 -0.24,0.01 -0.36,-0.02 -0.19,-0.05 -0.36,-0.16 -0.49,-0.32 -0.08,-0.1 -1.96,-2.49 -2.5,-3.281 -0.19,-0.28 -0.47,-0.489 -0.77,-0.559 -0.2,-0.051 -0.49,-0.08 -0.81,0.11 l -2.68,1.56 c -0.6,0.359 -0.64,1.08 -0.38,1.609 0.42,0.85 1.59,3.67 1.64,3.791 0.12,0.299 0.08,0.639 -0.12,0.899 l -2.72,3.59 c -0.2,0.261 -0.51,0.4 -0.83,0.361 -0.13,-0.019 -3.16,-0.371 -4.09,-0.551 -0.59,-0.109 -1.27,0.121 -1.45,0.791 l -0.781,3.01 c -0.179,0.67 0.301,1.209 0.871,1.41 0.9,0.299 3.71,1.469 3.83,1.51 0.299,0.129 0.51,0.4 0.56,0.719 l 0.62,4.47 c 0.04,0.321 -0.09,0.641 -0.34,0.84 -0.11,0.08 -2.5,1.971 -3.28,2.5 -0.5,0.34 -0.81,0.991 -0.46,1.59 l 1.57,2.68 c 0.19,0.32 0.46,0.441 0.65,0.49 0.3,0.08 0.65,0.041 0.96,-0.109 0.84,-0.43 3.66,-1.59 3.78,-1.641 0.3,-0.129 0.64,-0.08 0.9,0.111 l 3.6,2.729 c 0.25,0.191 0.39,0.51 0.35,0.83 -0.01,0.131 -0.37,3.16 -0.55,4.09 -0.11,0.58 0.13,1.271 0.8,1.441 l 3,0.789 c 0.68,0.17 1.22,-0.299 1.41,-0.869 0.3,-0.9 1.47,-3.721 1.52,-3.84 0.12,-0.291 0.4,-0.509 0.72,-0.55 l 4.46,-0.62 c 0.32,-0.041 0.64,0.09 0.84,0.34 0.08,0.1 1.97,2.5 2.51,3.28 0.19,0.291 0.46,0.49 0.77,0.57 0.2,0.049 0.5,0.07 0.81,-0.11 l 2.68,-1.57 c 0.6,-0.349 0.64,-1.08 0.38,-1.611 C -3.24,19.99 -4.4,17.17 -4.45,17.051 -4.57,16.75 -4.53,16.41 -4.33,16.15 l 2.72,-3.589 c 0.19,-0.26 0.51,-0.391 0.83,-0.36 0.13,0.02 3.16,0.379 4.09,0.549 0.59,0.121 1.27,-0.119 1.45,-0.789 l 0.39,-1.51 0.39,-1.5 C 5.72,8.281 5.24,7.74 4.67,7.551 3.77,7.25 0.96,6.08 0.84,6.031 0.54,5.91 0.33,5.631 0.28,5.311 L -0.33,0.84 C -0.38,0.521 -0.25,0.201 0,0 M 5.25,5.82 C 6.82,6.34 7.71,7.891 7.31,9.41 L 6.52,12.42 C 6.12,13.941 4.6,14.861 2.97,14.551 2.32,14.42 0.44,14.191 -0.47,14.08 l -2.09,2.76 c 0.35,0.851 1.09,2.59 1.38,3.191 0.74,1.479 0.28,3.19 -1.08,3.99 l -2.69,1.569 c -0.66,0.39 -1.44,0.5 -2.19,0.301 -0.73,-0.19 -1.381,-0.651 -1.82,-1.311 -0.37,-0.539 -1.54,-2.029 -2.11,-2.76 l -3.43,0.481 c -0.35,0.849 -1.06,2.599 -1.271,3.23 -0.519,1.571 -2.069,2.449 -3.599,2.049 l -3,-0.779 c -1.53,-0.401 -2.44,-1.93 -2.13,-3.551 0.13,-0.648 0.36,-2.52 0.47,-3.449 l -2.76,-2.09 c -0.86,0.359 -2.6,1.09 -3.19,1.391 -0.71,0.349 -1.49,0.439 -2.23,0.25 -0.75,-0.202 -1.37,-0.672 -1.77,-1.342 l -1.57,-2.68 c -0.79,-1.359 -0.36,-3.09 1.01,-4.019 0.54,-0.37 2.04,-1.53 2.76,-2.1 l -0.47,-3.43 C -33.1,5.43 -34.86,4.721 -35.48,4.5 -37.05,3.98 -37.94,2.441 -37.54,0.91 l 0.79,-3.01 c 0.39,-1.519 1.92,-2.439 3.55,-2.129 0.65,0.129 2.53,0.36 3.44,0.469 l 2.09,-2.75 c -0.36,-0.859 -1.09,-2.599 -1.38,-3.189 -0.74,-1.481 -0.28,-3.199 1.09,-4 l 2.68,-1.571 c 0.66,-0.39 1.44,-0.5 2.19,-0.3 0.73,0.191 1.38,0.65 1.819,1.31 0.371,0.541 1.531,2.031 2.111,2.76 l 3.43,-0.469 c 0.35,-0.861 1.06,-2.611 1.27,-3.23 0.53,-1.58 2.07,-2.461 3.6,-2.061 l 3,0.781 c 1.53,0.399 2.44,1.93 2.13,3.559 -0.12,0.641 -0.36,2.522 -0.47,3.441 l 2.76,2.09 c 0.86,-0.361 2.6,-1.09 3.19,-1.39 0.71,-0.35 1.5,-0.44 2.229,-0.241 0.75,0.19 1.381,0.67 1.771,1.331 l 0.78,1.339 c 0.01,0.01 0.02,0.03 0.03,0.041 l 0.76,1.299 c 0.79,1.362 0.36,3.09 -1.01,4.02 -0.54,0.371 -2.04,1.531 -2.77,2.101 l 0.48,3.43 c 0.85,0.35 2.6,1.07 3.23,1.279" />
      </g>
      <g
         transform="translate(785.6113,1470.4258)"
         id="g2542">
        <path
           inkscape:connector-curvature="0"
           id="path2544"
           style="fill:#303263;fill-opacity:1;fill-rule:nonzero;stroke:none"
           d="M 0,0 C -3.12,-0.82 -6.32,1.061 -7.131,4.18 -7.95,7.301 -6.07,10.51 -2.95,11.32 0.17,12.141 3.369,10.26 4.189,7.141 5,4.021 3.13,0.82 0,0 m 19.18,9.451 -0.39,1.5 -0.391,1.51 c -0.179,0.67 -0.859,0.91 -1.45,0.789 -0.929,-0.17 -3.96,-0.529 -4.09,-0.549 -0.319,-0.031 -0.639,0.1 -0.83,0.36 L 9.31,16.65 c -0.201,0.26 -0.241,0.6 -0.121,0.901 0.05,0.119 1.21,2.939 1.641,3.789 0.26,0.531 0.22,1.262 -0.381,1.611 L 7.77,24.521 C 7.46,24.701 7.159,24.68 6.96,24.631 6.649,24.551 6.38,24.352 6.189,24.061 5.649,23.281 3.76,20.881 3.68,20.781 3.479,20.531 3.159,20.4 2.84,20.441 l -4.46,0.62 c -0.32,0.041 -0.601,0.259 -0.721,0.55 -0.05,0.119 -1.22,2.94 -1.519,3.84 -0.191,0.57 -0.731,1.039 -1.411,0.869 l -3,-0.789 C -8.94,25.361 -9.181,24.67 -9.07,24.09 -8.891,23.16 -8.53,20.131 -8.521,20 -8.48,19.68 -8.62,19.361 -8.87,19.17 l -3.601,-2.729 c -0.259,-0.191 -0.599,-0.24 -0.899,-0.111 -0.12,0.051 -2.941,1.211 -3.78,1.641 -0.31,0.15 -0.661,0.189 -0.96,0.109 -0.191,-0.049 -0.46,-0.17 -0.651,-0.49 l -1.569,-2.68 c -0.351,-0.599 -0.04,-1.25 0.46,-1.59 0.779,-0.529 3.17,-2.42 3.279,-2.5 0.25,-0.199 0.381,-0.519 0.341,-0.84 l -0.62,-4.47 c -0.05,-0.319 -0.261,-0.59 -0.561,-0.719 -0.12,-0.041 -2.929,-1.211 -3.83,-1.51 -0.569,-0.201 -1.05,-0.74 -0.87,-1.41 l 0.78,-3.01 c 0.181,-0.67 0.861,-0.9 1.451,-0.791 0.929,0.18 3.96,0.532 4.089,0.551 0.321,0.039 0.63,-0.1 0.831,-0.361 l 2.719,-3.59 c 0.2,-0.26 0.24,-0.6 0.12,-0.899 -0.049,-0.121 -1.219,-2.941 -1.639,-3.791 -0.26,-0.529 -0.22,-1.25 0.38,-1.609 l 2.679,-1.56 c 0.321,-0.19 0.611,-0.161 0.811,-0.11 0.3,0.07 0.58,0.279 0.769,0.559 0.54,0.791 2.42,3.181 2.5,3.281 0.13,0.16 0.3,0.27 0.491,0.32 0.12,0.03 0.24,0.039 0.36,0.02 l 4.46,-0.621 c 0.33,-0.039 0.6,-0.25 0.72,-0.549 0.049,-0.121 1.219,-2.94 1.519,-3.84 C 1.1,-14.689 1.64,-15.17 2.31,-15 l 3.009,0.791 c 0.67,0.18 0.91,0.859 0.8,1.449 -0.18,0.92 -0.539,3.961 -0.55,4.09 -0.04,0.32 0.09,0.631 0.351,0.83 l 3.6,2.721 c 0.259,0.199 0.599,0.24 0.9,0.109 0.12,-0.039 2.939,-1.209 3.779,-1.629 0.311,-0.16 0.651,-0.201 0.96,-0.121 0.191,0.051 0.471,0.18 0.651,0.49 l 0.759,1.301 c 0.011,0.02 0.021,0.03 0.031,0.039 l 0.78,1.35 c 0.349,0.59 0.04,1.24 -0.45,1.58 -0.79,0.541 -3.18,2.42 -3.29,2.5 -0.25,0.201 -0.38,0.521 -0.33,0.84 l 0.61,4.471 c 0.05,0.32 0.26,0.599 0.559,0.72 0.121,0.049 2.93,1.219 3.831,1.52 0.57,0.189 1.049,0.73 0.87,1.4" />
      </g>
      <g
         transform="translate(785.1514,1472.1973)"
         id="g2546">
        <path
           inkscape:connector-curvature="0"
           id="path2548"
           style="fill:#303263;fill-opacity:1;fill-rule:nonzero;stroke:none"
           d="m 0,0 c -2.15,-0.561 -4.351,0.729 -4.91,2.869 -0.561,2.151 0.729,4.36 2.88,4.92 C 0.119,8.35 2.319,7.059 2.88,4.908 3.439,2.76 2.149,0.559 0,0 m 4.649,5.369 c -0.82,3.119 -4.019,5 -7.139,4.18 -3.12,-0.811 -5,-4.02 -4.181,-7.141 0.811,-3.119 4.011,-5 7.131,-4.179 3.13,0.82 5,4.021 4.189,7.14" />
      </g>
    </g>
  </g>
</svg>
