<?xml version="1.0" encoding="UTF-8" standalone="no"?>
<!-- Created with Inkscape (http://www.inkscape.org/) -->

<svg
   xmlns:dc="http://purl.org/dc/elements/1.1/"
   xmlns:cc="http://creativecommons.org/ns#"
   xmlns:rdf="http://www.w3.org/1999/02/22-rdf-syntax-ns#"
   xmlns:svg="http://www.w3.org/2000/svg"
   xmlns="http://www.w3.org/2000/svg"
   xmlns:sodipodi="http://sodipodi.sourceforge.net/DTD/sodipodi-0.dtd"
   xmlns:inkscape="http://www.inkscape.org/namespaces/inkscape"
   width="200"
   height="200"
   viewBox="0 0 200 200"
   id="svg8509"
   version="1.1"
   inkscape:version="0.91 r13725"
   sodipodi:docname="f5.svg">
  <defs
     id="defs8511" />
  <sodipodi:namedview
     id="base"
     pagecolor="#ffffff"
     bordercolor="#666666"
     borderopacity="1.0"
     inkscape:pageopacity="0.0"
     inkscape:pageshadow="2"
     inkscape:zoom="2.6077019"
     inkscape:cx="68.971627"
     inkscape:cy="152.85091"
     inkscape:document-units="px"
     inkscape:current-layer="layer1"
     showgrid="false"
     units="px"
     inkscape:window-width="960"
     inkscape:window-height="1062"
     inkscape:window-x="0"
     inkscape:window-y="18"
     inkscape:window-maximized="0" />
  <metadata
     id="metadata8514">
    <rdf:RDF>
      <cc:Work
         rdf:about="">
        <dc:format>image/svg+xml</dc:format>
        <dc:type
           rdf:resource="http://purl.org/dc/dcmitype/StillImage" />
        <dc:title />
      </cc:Work>
    </rdf:RDF>
  </metadata>
  <g
     inkscape:label="Layer 1"
     inkscape:groupmode="layer"
     id="layer1"
     transform="translate(0,-852.36216)">
    <rect
       y="852.36218"
       x="0"
       height="200"
       width="200"
       id="rect3340"
       style="opacity:1;fill:#f1efee;fill-opacity:1;stroke:none;stroke-width:1.18636501;stroke-miterlimit:4;stroke-dasharray:none;stroke-opacity:1" />
    <g
       transform="matrix(2.4996563,0,0,-2.4996563,-1096.374,3846.1848)"
       id="g8479">
      <g
         transform="translate(511.0859,1181.0059)"
         id="g2512">
        <path
           inkscape:connector-curvature="0"
           id="path2514"
           style="fill:#303263;fill-opacity:1;fill-rule:nonzero;stroke:none"
           d="m 0,0 c -0.963,0 -1.742,0.777 -1.742,1.738 0,0.961 0.779,1.739 1.742,1.739 2.234,0 4.055,1.82 4.055,4.06 0,2.236 -1.821,4.057 -4.055,4.057 l -64.94,0 c -2.239,0 -4.059,-1.821 -4.059,-4.057 0,-2.24 1.82,-4.06 4.059,-4.06 0.962,0 1.738,-0.778 1.738,-1.739 0,-0.961 -0.776,-1.738 -1.738,-1.738 -4.157,0 -7.536,3.379 -7.536,7.537 0,4.154 3.379,7.537 7.536,7.537 l 64.94,0 c 4.152,0 7.535,-3.383 7.535,-7.537 C 7.535,3.379 4.152,0 0,0" />
      </g>
      <g
         transform="translate(510.8164,1119.2969)"
         id="g2516">
        <path
           inkscape:connector-curvature="0"
           id="path2518"
           style="fill:#303263;fill-opacity:1;fill-rule:nonzero;stroke:none"
           d="m 0,0 c -0.453,0 -0.898,0.178 -1.23,0.51 l -7.393,7.394 -6.272,-6.269 c -0.677,-0.68 -1.779,-0.68 -2.457,0 l -6.377,6.375 -7.243,-7.244 c -0.677,-0.678 -1.779,-0.678 -2.461,0 L -40.675,8.01 -47.05,1.635 c -0.679,-0.68 -1.779,-0.68 -2.457,0 l -6.271,6.269 -7.393,-7.394 c -0.496,-0.496 -1.246,-0.649 -1.896,-0.377 -0.651,0.269 -1.075,0.902 -1.075,1.607 l 0,73.303 c 0,0.959 0.782,1.74 1.741,1.74 0.959,0 1.738,-0.781 1.738,-1.74 l 0,-69.104 5.656,5.653 c 0.678,0.679 1.779,0.679 2.459,0 l 6.268,-6.268 6.375,6.373 c 0.677,0.684 1.779,0.684 2.461,0 l 7.242,-7.242 7.245,7.242 c 0.68,0.684 1.779,0.684 2.459,0 l 6.373,-6.373 6.268,6.268 c 0.681,0.679 1.783,0.679 2.462,0 l 5.653,-5.653 0,69.104 c 0,0.959 0.781,1.74 1.742,1.74 0.959,0 1.736,-0.781 1.736,-1.74 l 0,-73.303 C 1.736,1.035 1.313,0.402 0.662,0.133 0.447,0.043 0.223,0 0,0" />
      </g>
      <g
         transform="translate(472.5005,1163.1846)"
         id="g2520">
        <path
           inkscape:connector-curvature="0"
           id="path2522"
           style="fill:#303263;fill-opacity:1;fill-rule:nonzero;stroke:none"
           d="m 0,0 c 0,-8.567 2.236,-12.853 6.708,-12.853 4.432,0 6.648,4.346 6.648,13.035 0,9.038 -2.162,13.557 -6.486,13.557 C 2.29,13.739 0,9.159 0,0 m -3.435,-0.183 c 0,5.524 0.899,9.706 2.697,12.548 1.799,2.843 4.395,4.264 7.79,4.264 6.506,0 9.759,-5.348 9.759,-16.043 0,-5.2 -0.892,-9.218 -2.677,-12.054 -1.785,-2.835 -4.382,-4.253 -7.789,-4.253 -3.179,0 -5.604,1.361 -7.275,4.082 -1.67,2.721 -2.505,6.539 -2.505,11.456" />
      </g>
      <path
         inkscape:connector-curvature="0"
         id="path2524"
         style="fill:#303263;fill-opacity:1;fill-rule:nonzero;stroke:none"
         d="m 495.883,1136.844 -34.534,0 0,5.213 34.534,0 0,-5.213 z" />
    </g>
  </g>
</svg>
