<?xml version="1.0" encoding="UTF-8" standalone="no"?>
<!-- Created with Inkscape (http://www.inkscape.org/) -->

<svg
   xmlns:dc="http://purl.org/dc/elements/1.1/"
   xmlns:cc="http://creativecommons.org/ns#"
   xmlns:rdf="http://www.w3.org/1999/02/22-rdf-syntax-ns#"
   xmlns:svg="http://www.w3.org/2000/svg"
   xmlns="http://www.w3.org/2000/svg"
   xmlns:sodipodi="http://sodipodi.sourceforge.net/DTD/sodipodi-0.dtd"
   xmlns:inkscape="http://www.inkscape.org/namespaces/inkscape"
   width="200"
   height="200"
   viewBox="0 0 200 200"
   id="svg8509"
   version="1.1"
   inkscape:version="0.91 r13725"
   sodipodi:docname="f6.svg">
  <defs
     id="defs8511" />
  <sodipodi:namedview
     id="base"
     pagecolor="#ffffff"
     bordercolor="#666666"
     borderopacity="1.0"
     inkscape:pageopacity="0.0"
     inkscape:pageshadow="2"
     inkscape:zoom="2.6077019"
     inkscape:cx="93.514309"
     inkscape:cy="137.51174"
     inkscape:document-units="px"
     inkscape:current-layer="layer1"
     showgrid="false"
     units="px"
     inkscape:window-width="960"
     inkscape:window-height="1062"
     inkscape:window-x="0"
     inkscape:window-y="18"
     inkscape:window-maximized="0" />
  <metadata
     id="metadata8514">
    <rdf:RDF>
      <cc:Work
         rdf:about="">
        <dc:format>image/svg+xml</dc:format>
        <dc:type
           rdf:resource="http://purl.org/dc/dcmitype/StillImage" />
        <dc:title />
      </cc:Work>
    </rdf:RDF>
  </metadata>
  <g
     inkscape:label="Layer 1"
     inkscape:groupmode="layer"
     id="layer1"
     transform="translate(0,-852.36216)">
    <rect
       y="852.36218"
       x="0"
       height="200"
       width="200"
       id="rect3340"
       style="opacity:1;fill:#f1efee;fill-opacity:1;stroke:none;stroke-width:1.18636501;stroke-miterlimit:4;stroke-dasharray:none;stroke-opacity:1" />
    <g
       transform="matrix(1.9130017,0,0,-1.9130017,-1353.3957,3157.7626)"
       id="g8447">
      <g
         transform="translate(740.9336,1140.2168)"
         id="g2444">
        <path
           inkscape:connector-curvature="0"
           id="path2446"
           style="fill:none;stroke:#303263;stroke-width:2;stroke-linecap:butt;stroke-linejoin:miter;stroke-miterlimit:10;stroke-dasharray:none;stroke-opacity:1"
           d="M 0,0 C -3.678,-1.58 -7.94,0.122 -9.521,3.8 -11.1,7.478 -9.399,11.741 -5.72,13.32 -2.041,14.899 2.222,13.198 3.8,9.521 5.381,5.843 3.68,1.58 0,0 Z" />
      </g>
      <g
         transform="translate(717.583,1146.8291)"
         id="g2448">
        <path
           inkscape:connector-curvature="0"
           id="path2450"
           style="fill:#303263;fill-opacity:1;fill-rule:nonzero;stroke:none"
           d="m 0,0 c -3.678,-1.578 -7.94,0.123 -9.521,3.801 -1.579,3.678 0.122,7.941 3.801,9.52 3.678,1.58 7.941,-0.121 9.521,-3.8 C 5.38,5.844 3.679,1.581 0,0" />
      </g>
      <g
         transform="translate(758.8135,1113.29)"
         id="g2452">
        <path
           inkscape:connector-curvature="0"
           id="path2454"
           style="fill:#303263;fill-opacity:1;fill-rule:nonzero;stroke:none"
           d="m 0,0 c -3.679,-1.579 -7.941,0.122 -9.521,3.801 -1.58,3.678 0.122,7.94 3.801,9.519 C -2.043,14.9 2.22,13.199 3.801,9.521 5.379,5.843 3.678,1.581 0,0" />
      </g>
      <g
         transform="translate(724.9307,1120.541)"
         id="g2456">
        <path
           inkscape:connector-curvature="0"
           id="path2458"
           style="fill:#303263;fill-opacity:1;fill-rule:nonzero;stroke:none"
           d="m 0,0 c -3.679,-1.58 -7.942,0.12 -9.522,3.798 -1.58,3.68 0.122,7.942 3.799,9.521 C -2.044,14.899 2.219,13.198 3.8,9.52 5.378,5.842 3.676,1.579 0,0" />
      </g>
      <g
         transform="translate(733.8027,1141.0293)"
         id="g2460">
        <path
           inkscape:connector-curvature="0"
           id="path2462"
           style="fill:none;stroke:#303263;stroke-width:2;stroke-linecap:butt;stroke-linejoin:miter;stroke-miterlimit:10;stroke-dasharray:none;stroke-opacity:1"
           d="M 0,0 -11.733,-13.828" />
      </g>
      <g
         transform="translate(722.0693,1127.2012)"
         id="g2464">
        <path
           inkscape:connector-curvature="0"
           id="path2466"
           style="fill:none;stroke:#303263;stroke-width:2;stroke-linecap:butt;stroke-linejoin:miter;stroke-miterlimit:10;stroke-dasharray:none;stroke-opacity:1"
           d="M 0,0 -7.347,26.289" />
      </g>
      <g
         transform="translate(714.7227,1153.4902)"
         id="g2468">
        <path
           inkscape:connector-curvature="0"
           id="path2470"
           style="fill:none;stroke:#303263;stroke-width:2;stroke-linecap:butt;stroke-linejoin:miter;stroke-miterlimit:10;stroke-dasharray:none;stroke-opacity:1"
           d="M 0,0 16.646,-3.863" />
      </g>
      <g
         transform="translate(742.3496,1141.0293)"
         id="g2472">
        <path
           inkscape:connector-curvature="0"
           id="path2474"
           style="fill:none;stroke:#303263;stroke-width:2;stroke-linecap:butt;stroke-linejoin:miter;stroke-miterlimit:10;stroke-dasharray:none;stroke-opacity:1"
           d="m 0,0 13.604,-21.079 -28.018,3.008" />
      </g>
      <g
         transform="translate(763.1426,1150.501)"
         id="g2476">
        <path
           inkscape:connector-curvature="0"
           id="path2478"
           style="fill:none;stroke:#303263;stroke-width:2;stroke-linecap:butt;stroke-linejoin:miter;stroke-miterlimit:10;stroke-dasharray:none;stroke-opacity:1"
           d="M 0,0 C 2.036,5.185 7.892,7.737 13.078,5.701 18.264,3.665 20.816,-2.19 18.78,-7.377 16.743,-12.563 10.888,-15.116 5.701,-13.079 0.516,-11.043 -2.038,-5.187 0,0 Z" />
      </g>
      <g
         transform="translate(792.5381,1167.1367)"
         id="g2480">
        <path
           inkscape:connector-curvature="0"
           id="path2482"
           style="fill:#303263;fill-opacity:1;fill-rule:nonzero;stroke:none"
           d="m 0,0 c 2.036,5.186 7.893,7.738 13.079,5.701 5.185,-2.035 7.739,-7.889 5.702,-13.076 -2.038,-5.188 -7.891,-7.74 -13.08,-5.704 C 0.518,-11.041 -2.036,-5.188 0,0" />
      </g>
      <g
         transform="translate(770.9248,1156.7627)"
         id="g2484">
        <path
           inkscape:connector-curvature="0"
           id="path2486"
           style="fill:none;stroke:#303263;stroke-width:2;stroke-linecap:butt;stroke-linejoin:miter;stroke-miterlimit:10;stroke-dasharray:none;stroke-opacity:1"
           d="M 0,0 -2.201,25.144" />
      </g>
      <g
         transform="translate(768.7236,1181.9063)"
         id="g2488">
        <path
           inkscape:connector-curvature="0"
           id="path2490"
           style="fill:none;stroke:#303263;stroke-width:2;stroke-linecap:butt;stroke-linejoin:miter;stroke-miterlimit:10;stroke-dasharray:none;stroke-opacity:1"
           d="M 0,0 33.205,-18.457" />
      </g>
      <g
         transform="translate(801.9287,1163.4492)"
         id="g2492">
        <path
           inkscape:connector-curvature="0"
           id="path2494"
           style="fill:none;stroke:#303263;stroke-width:2;stroke-linecap:butt;stroke-linejoin:miter;stroke-miterlimit:10;stroke-dasharray:none;stroke-opacity:1"
           d="M 0,0 -20.114,-12.693" />
      </g>
      <g
         transform="translate(759.3311,1185.5938)"
         id="g2496">
        <path
           inkscape:connector-curvature="0"
           id="path2498"
           style="fill:#ffffff;fill-opacity:1;fill-rule:nonzero;stroke:none"
           d="m 0,0 c 2.037,5.188 7.894,7.74 13.079,5.705 5.187,-2.037 7.741,-7.893 5.704,-13.08 -2.038,-5.186 -7.891,-7.738 -13.08,-5.704 C 0.52,-11.041 -2.033,-5.185 0,0" />
      </g>
      <g
         transform="translate(759.3311,1185.5938)"
         id="g2500">
        <path
           inkscape:connector-curvature="0"
           id="path2502"
           style="fill:none;stroke:#303263;stroke-width:2;stroke-linecap:butt;stroke-linejoin:miter;stroke-miterlimit:10;stroke-dasharray:none;stroke-opacity:1"
           d="m 0,0 c 2.037,5.188 7.894,7.74 13.079,5.705 5.187,-2.037 7.741,-7.893 5.704,-13.08 -2.038,-5.186 -7.891,-7.738 -13.08,-5.704 C 0.52,-11.041 -2.033,-5.185 0,0 Z" />
      </g>
    </g>
  </g>
</svg>
