<?xml version="1.0" encoding="UTF-8" standalone="no"?>
<!-- Created with Inkscape (http://www.inkscape.org/) -->

<svg
   xmlns:dc="http://purl.org/dc/elements/1.1/"
   xmlns:cc="http://creativecommons.org/ns#"
   xmlns:rdf="http://www.w3.org/1999/02/22-rdf-syntax-ns#"
   xmlns:svg="http://www.w3.org/2000/svg"
   xmlns="http://www.w3.org/2000/svg"
   xmlns:sodipodi="http://sodipodi.sourceforge.net/DTD/sodipodi-0.dtd"
   xmlns:inkscape="http://www.inkscape.org/namespaces/inkscape"
   width="200"
   height="200"
   viewBox="0 0 199.99999 199.99999"
   id="svg13825"
   version="1.1"
   inkscape:version="0.91 r13725"
   sodipodi:docname="l1.svg">
  <defs
     id="defs13827">
    <clipPath
       clipPathUnits="userSpaceOnUse"
       id="clipPath3958">
      <path
         d="m 704.729,2128.11 112.845,0 0,-112.85 -112.845,0 0,112.85 z"
         id="path3960"
         inkscape:connector-curvature="0" />
    </clipPath>
  </defs>
  <sodipodi:namedview
     id="base"
     pagecolor="#ffffff"
     bordercolor="#666666"
     borderopacity="1.0"
     inkscape:pageopacity="0.0"
     inkscape:pageshadow="2"
     inkscape:zoom="1.1891245"
     inkscape:cx="181.17914"
     inkscape:cy="-50.151008"
     inkscape:document-units="px"
     inkscape:current-layer="layer1"
     showgrid="false"
     units="px"
     inkscape:window-width="1920"
     inkscape:window-height="1062"
     inkscape:window-x="0"
     inkscape:window-y="18"
     inkscape:window-maximized="1" />
  <metadata
     id="metadata13830">
    <rdf:RDF>
      <cc:Work
         rdf:about="">
        <dc:format>image/svg+xml</dc:format>
        <dc:type
           rdf:resource="http://purl.org/dc/dcmitype/StillImage" />
        <dc:title />
      </cc:Work>
    </rdf:RDF>
  </metadata>
  <g
     inkscape:label="Layer 1"
     inkscape:groupmode="layer"
     id="layer1"
     transform="translate(0,-852.36225)">
    <rect
       y="852.36224"
       x="3.3378615e-06"
       height="199.99997"
       width="199.99997"
       id="rect3340"
       style="opacity:1;fill:#f1efee;fill-opacity:1;stroke:none;stroke-width:1.18636501;stroke-miterlimit:4;stroke-dasharray:none;stroke-opacity:1" />
    <g
       id="g12573"
       transform="matrix(1.5177267,0,0,-1.5177267,-1076.3121,4086.6869)">
      <g
         transform="translate(13.897211,2.925729)"
         id="g3954">
        <g
           id="g3956" />
        <g
           id="g3962">
          <g
             style="opacity:0.39999402"
             id="g3964"
             clip-path="url(#clipPath3958)">
            <g
               id="g3966"
               transform="translate(817.5742,2071.6836)">
              <path
                 inkscape:connector-curvature="0"
                 id="path3968"
                 style="fill:#1b61ad;fill-opacity:1;fill-rule:nonzero;stroke:none"
                 d="m 0,0 c 0,-31.161 -25.262,-56.423 -56.423,-56.423 -31.161,0 -56.423,25.262 -56.423,56.423 0,31.161 25.262,56.423 56.423,56.423 C -25.262,56.423 0,31.161 0,0" />
            </g>
          </g>
        </g>
      </g>
      <g
         transform="translate(782.70191,2012.0458)"
         id="g3970">
        <path
           inkscape:connector-curvature="0"
           id="path3972"
           style="fill:#1b61ad;fill-opacity:1;fill-rule:nonzero;stroke:none"
           d="m 0,0 -30.746,16.375 0,54.936 L 1.063,59.048 0,0 Z" />
      </g>
      <g
         transform="translate(783.20191,2071.1405)"
         id="g3974">
        <path
           inkscape:connector-curvature="0"
           id="path3976"
           style="fill:#ffffff;fill-opacity:1;fill-rule:nonzero;stroke:none"
           d="m 0,0 25.92,8.868 0,-54.075 L 0,-58.282 0,0 Z" />
      </g>
      <g
         transform="translate(809.62181,2080.7079)"
         id="g3978">
        <path
           inkscape:connector-curvature="0"
           id="path3980"
           style="fill:#1b61ad;fill-opacity:1;fill-rule:nonzero;stroke:none"
           d="m 0,0 -26.92,-9.21 0,-59.452 L 0,-55.082 0,0 Z m -1,-1.399 0,-53.067 -24.92,-12.572 0,57.113 24.92,8.526 z" />
      </g>
      <g
         transform="translate(753.40891,2083.3339)"
         id="g3982">
        <path
           inkscape:connector-curvature="0"
           id="path3984"
           style="fill:#ffffff;fill-opacity:1;fill-rule:nonzero;stroke:none"
           d="M 0,0 25.894,9.028 54.775,-2.587 29.304,-11.256 0,0 Z" />
      </g>
      <g
         transform="translate(779.31521,2092.8964)"
         id="g3986">
        <path
           inkscape:connector-curvature="0"
           id="path3988"
           style="fill:#1b61ad;fill-opacity:1;fill-rule:nonzero;stroke:none"
           d="M 0,0 -27.359,-9.54 3.387,-21.35 30.307,-12.188 0,0 Z m -0.025,-1.068 27.458,-11.042 -24.026,-8.176 -27.859,10.7 24.427,8.518 z" />
      </g>
      <g
         transform="translate(745.44411,2015.8886)"
         id="g3990">
        <path
           inkscape:connector-curvature="0"
           id="path3992"
           style="fill:#1b61ad;fill-opacity:1;fill-rule:nonzero;stroke:none"
           d="m 0,0 -18.208,9.808 0,33.982 L 0,36.204 0,0 Z" />
      </g>
      <g
         transform="translate(745.33671,2050.9198)"
         id="g3994">
        <path
           inkscape:connector-curvature="0"
           id="path3996"
           style="fill:#ffffff;fill-opacity:1;fill-rule:nonzero;stroke:none"
           d="m 0,0 14.872,5.18 0,-32.062 L 0.234,-34.224 0,0 Z" />
      </g>
      <g
         transform="translate(760.70871,2056.8027)"
         id="g3998">
        <path
           inkscape:connector-curvature="0"
           id="path4000"
           style="fill:#1b61ad;fill-opacity:1;fill-rule:nonzero;stroke:none"
           d="M 0,0 -15.874,-5.528 -15.632,-40.914 0,-33.073 0,0 Z m -1,-1.407 0,-31.049 -13.643,-6.843 -0.226,33.062 13.869,4.83 z" />
      </g>
      <g
         transform="translate(728.60911,2059.5771)"
         id="g4002">
        <path
           inkscape:connector-curvature="0"
           id="path4004"
           style="fill:#ffffff;fill-opacity:1;fill-rule:nonzero;stroke:none"
           d="M 0,0 14.259,4.371 30.722,-2.725 16.256,-7.763 0,0 Z" />
      </g>
      <g
         transform="translate(742.89721,2064.4804)"
         id="g4006">
        <path
           inkscape:connector-curvature="0"
           id="path4008"
           style="fill:#1b61ad;fill-opacity:1;fill-rule:nonzero;stroke:none"
           d="M 0,0 -15.661,-4.802 1.938,-13.206 17.812,-7.678 0,0 Z m -0.059,-1.064 15.115,-6.514 -13.059,-4.549 -14.911,7.121 12.855,3.942 z" />
      </g>
      <g
         transform="translate(772.27611,1999.2568)"
         id="g4010">
        <path
           inkscape:connector-curvature="0"
           id="path4012"
           style="fill:#1b61ad;fill-opacity:1;fill-rule:nonzero;stroke:none"
           d="m 0,0 -11.567,6.436 0,22.302 L 0.383,23.76 0,0 Z" />
      </g>
      <g
         transform="translate(772.75851,2022.1239)"
         id="g4014">
        <path
           inkscape:connector-curvature="0"
           id="path4016"
           style="fill:#ffffff;fill-opacity:1;fill-rule:nonzero;stroke:none"
           d="m 0,0 9.418,3.28 0,-20.692 L 0.017,-22.063 0,0 Z" />
      </g>
      <g
         transform="translate(782.67651,2026.1083)"
         id="g4018">
        <path
           inkscape:connector-curvature="0"
           id="path4020"
           style="fill:#1b61ad;fill-opacity:1;fill-rule:nonzero;stroke:none"
           d="M 0,0 -10.418,-3.629 -10.4,-26.852 0,-21.707 0,0 Z m -1,-1.407 0,-19.679 -8.401,-4.155 -0.017,20.902 8.418,2.932 z" />
      </g>
      <g
         transform="translate(762.07881,2027.788)"
         id="g4022">
        <path
           inkscape:connector-curvature="0"
           id="path4024"
           style="fill:#ffffff;fill-opacity:1;fill-rule:nonzero;stroke:none"
           d="M 0,0 8.882,2.826 19.22,-1.63 10.207,-4.77 0,0 Z" />
      </g>
      <g
         transform="translate(770.98701,2031.1474)"
         id="g4026">
        <path
           inkscape:connector-curvature="0"
           id="path4028"
           style="fill:#1b61ad;fill-opacity:1;fill-rule:nonzero;stroke:none"
           d="M 0,0 -10.278,-3.271 1.271,-8.668 11.689,-5.039 0,0 Z m -0.053,-1.066 8.987,-3.874 -7.608,-2.65 -8.863,4.142 7.484,2.382 z" />
      </g>
    </g>
  </g>
</svg>
