<?xml version="1.0" encoding="UTF-8" standalone="no"?>
<!-- Created with Inkscape (http://www.inkscape.org/) -->

<svg
   xmlns:dc="http://purl.org/dc/elements/1.1/"
   xmlns:cc="http://creativecommons.org/ns#"
   xmlns:rdf="http://www.w3.org/1999/02/22-rdf-syntax-ns#"
   xmlns:svg="http://www.w3.org/2000/svg"
   xmlns="http://www.w3.org/2000/svg"
   xmlns:sodipodi="http://sodipodi.sourceforge.net/DTD/sodipodi-0.dtd"
   xmlns:inkscape="http://www.inkscape.org/namespaces/inkscape"
   width="200"
   height="200"
   viewBox="0 0 199.99999 199.99999"
   id="svg13825"
   version="1.1"
   inkscape:version="0.91 r13725"
   sodipodi:docname="l2.svg">
  <defs
     id="defs13827">
    <clipPath
       clipPathUnits="userSpaceOnUse"
       id="clipPath3958">
      <path
         d="m 704.729,2128.11 112.845,0 0,-112.85 -112.845,0 0,112.85 z"
         id="path3960"
         inkscape:connector-curvature="0" />
    </clipPath>
    <clipPath
       clipPathUnits="userSpaceOnUse"
       id="clipPath4074">
      <path
         d="m 198.301,1837.463 -26.953,-46.682 26.953,-46.679 53.902,0 26.953,46.679 -26.953,46.682 -53.902,0 z"
         id="path4076"
         inkscape:connector-curvature="0" />
    </clipPath>
    <clipPath
       clipPathUnits="userSpaceOnUse"
       id="clipPath4174">
      <path
         d="m 211.508,1882.35 107.807,0 0,-93.37 -107.807,0 0,93.37 z"
         id="path4176"
         inkscape:connector-curvature="0" />
    </clipPath>
    <clipPath
       clipPathUnits="userSpaceOnUse"
       id="clipPath4190">
      <path
         d="m 156.681,1789.64 107.806,0 0,-93.36 -107.806,0 0,93.36 z"
         id="path4192"
         inkscape:connector-curvature="0" />
    </clipPath>
  </defs>
  <sodipodi:namedview
     id="base"
     pagecolor="#ffffff"
     bordercolor="#666666"
     borderopacity="1.0"
     inkscape:pageopacity="0.0"
     inkscape:pageshadow="2"
     inkscape:zoom="2.0229846"
     inkscape:cx="134.92953"
     inkscape:cy="99.834078"
     inkscape:document-units="px"
     inkscape:current-layer="layer1"
     showgrid="false"
     units="px"
     inkscape:window-width="960"
     inkscape:window-height="1062"
     inkscape:window-x="0"
     inkscape:window-y="18"
     inkscape:window-maximized="0" />
  <metadata
     id="metadata13830">
    <rdf:RDF>
      <cc:Work
         rdf:about="">
        <dc:format>image/svg+xml</dc:format>
        <dc:type
           rdf:resource="http://purl.org/dc/dcmitype/StillImage" />
        <dc:title />
      </cc:Work>
    </rdf:RDF>
  </metadata>
  <g
     inkscape:label="Layer 1"
     inkscape:groupmode="layer"
     id="layer1"
     transform="translate(0,-852.36225)">
    <rect
       y="852.36224"
       x="3.3378615e-06"
       height="199.99997"
       width="199.99997"
       id="rect3340"
       style="opacity:1;fill:#f1efee;fill-opacity:1;stroke:none;stroke-width:1.18636501;stroke-miterlimit:4;stroke-dasharray:none;stroke-opacity:1" />
    <g
       transform="matrix(1.7648201,0,0,-1.7648156,-297.52945,4112.761)"
       id="g13618">
      <g
         id="g4070">
        <g
           clip-path="url(#clipPath4074)"
           id="g4072">
          <g
             transform="translate(248.5215,1805.0352)"
             id="g4078">
            <path
               inkscape:connector-curvature="0"
               id="path4080"
               style="fill:#1b61ad;fill-opacity:1;fill-rule:nonzero;stroke:none"
               d="m 0,0 c -4.521,0 -8.199,-3.676 -8.199,-8.201 0,-4.522 3.678,-8.201 8.199,-8.201 4.521,0 8.201,3.679 8.201,8.201 C 8.201,-3.676 4.521,0 0,0 m 0,-18.912 c -5.908,0 -10.712,4.805 -10.712,10.711 0,5.906 4.804,10.711 10.712,10.711 5.905,0 10.711,-4.805 10.711,-10.711 0,-5.906 -4.806,-10.711 -10.711,-10.711" />
          </g>
          <g
             transform="translate(237.3486,1754.1777)"
             id="g4082">
            <path
               inkscape:connector-curvature="0"
               id="path4084"
               style="fill:#1b61ad;fill-opacity:1;fill-rule:nonzero;stroke:none"
               d="m 0,0 c 0,-5.223 -4.231,-9.455 -9.454,-9.455 -5.226,0 -9.456,4.232 -9.456,9.455 0,5.221 4.23,9.457 9.456,9.457 C -4.231,9.457 0,5.221 0,0" />
          </g>
          <g
             transform="translate(227.8945,1762.3809)"
             id="g4086">
            <path
               inkscape:connector-curvature="0"
               id="path4088"
               style="fill:#1b61ad;fill-opacity:1;fill-rule:nonzero;stroke:none"
               d="m 0,0 c -4.524,0 -8.201,-3.678 -8.201,-8.203 0,-4.524 3.677,-8.201 8.201,-8.201 4.521,0 8.199,3.677 8.199,8.201 C 8.199,-3.678 4.521,0 0,0 m 0,-18.912 c -5.905,0 -10.711,4.805 -10.711,10.709 0,5.908 4.806,10.713 10.711,10.713 5.906,0 10.709,-4.805 10.709,-10.713 0,-5.904 -4.803,-10.709 -10.709,-10.709" />
          </g>
          <g
             transform="translate(277.4229,1754.1777)"
             id="g4090">
            <path
               inkscape:connector-curvature="0"
               id="path4092"
               style="fill:#1b61ad;fill-opacity:1;fill-rule:nonzero;stroke:none"
               d="m 0,0 c 0,-5.223 -4.233,-9.455 -9.454,-9.455 -5.223,0 -9.456,4.232 -9.456,9.455 0,5.221 4.233,9.457 9.456,9.457 C -4.233,9.457 0,5.221 0,0" />
          </g>
          <g
             transform="translate(267.9688,1762.3809)"
             id="g4094">
            <path
               inkscape:connector-curvature="0"
               id="path4096"
               style="fill:#1b61ad;fill-opacity:1;fill-rule:nonzero;stroke:none"
               d="m 0,0 c -4.523,0 -8.203,-3.678 -8.203,-8.203 0,-4.524 3.68,-8.201 8.203,-8.201 4.522,0 8.201,3.677 8.201,8.201 C 8.201,-3.678 4.522,0 0,0 m 0,-18.912 c -5.905,0 -10.711,4.805 -10.711,10.709 0,5.908 4.806,10.713 10.711,10.713 5.903,0 10.712,-4.805 10.712,-10.713 0,-5.904 -4.809,-10.709 -10.712,-10.709" />
          </g>
          <g
             transform="translate(248.5469,1768.8516)"
             id="g4098">
            <path
               inkscape:connector-curvature="0"
               id="path4100"
               style="fill:#1b61ad;fill-opacity:1;fill-rule:nonzero;stroke:none"
               d="m 0,0 c -0.694,0 -1.258,0.559 -1.258,1.254 l 0,10.73 c 0,0.692 0.564,1.252 1.258,1.252 0.692,0 1.253,-0.56 1.253,-1.252 l 0,-10.73 C 1.253,0.559 0.692,0 0,0" />
          </g>
          <g
             transform="translate(241.709,1762.0127)"
             id="g4102">
            <path
               inkscape:connector-curvature="0"
               id="path4104"
               style="fill:#1b61ad;fill-opacity:1;fill-rule:nonzero;stroke:none"
               d="m 0,0 c -0.321,0 -0.64,0.122 -0.889,0.368 -0.489,0.488 -0.489,1.283 0,1.774 l 6.838,6.837 c 0.491,0.491 1.285,0.491 1.775,0 l 6.429,-6.431 c 0.492,-0.49 0.492,-1.283 0,-1.776 -0.489,-0.488 -1.283,-0.488 -1.774,0 L 6.838,6.317 0.886,0.368 C 0.644,0.122 0.32,0 0,0" />
          </g>
          <g
             transform="translate(269.5469,1846.9199)"
             id="g4106">
            <path
               inkscape:connector-curvature="0"
               id="path4108"
               style="fill:#1b61ad;fill-opacity:1;fill-rule:nonzero;stroke:none"
               d="m 0,0 c -4.521,0 -8.199,-3.678 -8.199,-8.201 0,-4.522 3.678,-8.201 8.199,-8.201 4.521,0 8.201,3.679 8.201,8.201 C 8.201,-3.678 4.521,0 0,0 m 0,-18.912 c -5.908,0 -10.711,4.805 -10.711,10.711 0,5.906 4.803,10.711 10.711,10.711 5.906,0 10.711,-4.805 10.711,-10.711 0,-5.906 -4.805,-10.711 -10.711,-10.711" />
          </g>
          <g
             transform="translate(299.6299,1796.0625)"
             id="g4110">
            <path
               inkscape:connector-curvature="0"
               id="path4112"
               style="fill:#1b61ad;fill-opacity:1;fill-rule:nonzero;stroke:none"
               d="m 0,0 c 0,-5.223 -4.233,-9.455 -9.454,-9.455 -5.223,0 -9.456,4.232 -9.456,9.455 0,5.221 4.233,9.457 9.456,9.457 C -4.233,9.457 0,5.221 0,0" />
          </g>
          <g
             transform="translate(290.1758,1804.2627)"
             id="g4114">
            <path
               inkscape:connector-curvature="0"
               id="path4116"
               style="fill:#1b61ad;fill-opacity:1;fill-rule:nonzero;stroke:none"
               d="m 0,0 c -4.523,0 -8.203,-3.677 -8.203,-8.2 0,-4.524 3.68,-8.201 8.203,-8.201 4.521,0 8.201,3.677 8.201,8.201 C 8.201,-3.677 4.521,0 0,0 m 0,-18.909 c -5.905,0 -10.711,4.803 -10.711,10.709 0,5.908 4.806,10.711 10.711,10.711 5.903,0 10.712,-4.803 10.712,-10.711 0,-5.906 -4.809,-10.709 -10.712,-10.709" />
          </g>
          <g
             transform="translate(269.5723,1810.7344)"
             id="g4118">
            <path
               inkscape:connector-curvature="0"
               id="path4120"
               style="fill:#1b61ad;fill-opacity:1;fill-rule:nonzero;stroke:none"
               d="m 0,0 c -0.694,0 -1.257,0.559 -1.257,1.256 l 0,10.73 c 0,0.692 0.563,1.252 1.257,1.252 0.692,0 1.253,-0.56 1.253,-1.252 l 0,-10.73 C 1.253,0.559 0.692,0 0,0" />
          </g>
          <g
             transform="translate(262.7344,1803.8965)"
             id="g4122">
            <path
               inkscape:connector-curvature="0"
               id="path4124"
               style="fill:#1b61ad;fill-opacity:1;fill-rule:nonzero;stroke:none"
               d="m 0,0 c -0.32,0 -0.639,0.123 -0.888,0.366 -0.489,0.491 -0.489,1.286 0,1.777 L 5.95,8.98 c 0.491,0.491 1.284,0.491 1.774,0 l 6.429,-6.433 c 0.492,-0.488 0.492,-1.281 0,-1.774 -0.489,-0.488 -1.282,-0.488 -1.774,0 L 6.838,6.316 0.886,0.366 C 0.644,0.123 0.321,0 0,0" />
          </g>
          <g
             transform="translate(213.6533,1823.5508)"
             id="g4126">
            <path
               inkscape:connector-curvature="0"
               id="path4128"
               style="fill:#1b61ad;fill-opacity:1;fill-rule:nonzero;stroke:none"
               d="m 0,0 c -4.805,2.045 -7.041,7.6 -4.995,12.402 2.047,4.809 7.6,7.043 12.405,4.996 C 12.214,15.354 14.452,9.801 12.405,4.994 10.358,0.189 4.804,-2.045 0,0" />
          </g>
          <g
             transform="translate(224.9053,1829.0371)"
             id="g4130">
            <path
               inkscape:connector-curvature="0"
               id="path4132"
               style="fill:#1b61ad;fill-opacity:1;fill-rule:nonzero;stroke:none"
               d="m 0,0 c 1.771,4.162 -0.171,8.986 -4.333,10.758 -4.163,1.773 -8.987,-0.17 -10.76,-4.332 -1.771,-4.16 0.171,-8.985 4.333,-10.758 C -6.596,-6.105 -1.773,-4.162 0,0 m -17.399,7.408 c 2.313,5.434 8.615,7.975 14.048,5.658 5.436,-2.312 7.974,-8.615 5.66,-14.05 -2.315,-5.434 -8.617,-7.971 -14.052,-5.657 -5.434,2.313 -7.971,8.616 -5.656,14.049" />
          </g>
          <g
             transform="translate(197.4912,1785.5938)"
             id="g4134">
            <path
               inkscape:connector-curvature="0"
               id="path4136"
               style="fill:#1b61ad;fill-opacity:1;fill-rule:nonzero;stroke:none"
               d="m 0,0 c -4.806,2.047 -7.042,7.6 -4.997,12.402 2.046,4.805 7.6,7.043 12.404,4.996 C 12.211,15.354 14.451,9.797 12.403,4.994 10.358,0.189 4.803,-2.047 0,0" />
          </g>
          <g
             transform="translate(208.7402,1791.0781)"
             id="g4138">
            <path
               inkscape:connector-curvature="0"
               id="path4140"
               style="fill:#1b61ad;fill-opacity:1;fill-rule:nonzero;stroke:none"
               d="m 0,0 c 1.772,4.164 -0.169,8.988 -4.333,10.762 -4.16,1.773 -8.985,-0.174 -10.759,-4.334 -1.77,-4.162 0.17,-8.987 4.333,-10.76 C -6.596,-6.105 -1.772,-4.16 0,0 m -17.399,7.41 c 2.314,5.434 8.616,7.973 14.048,5.658 5.437,-2.314 7.974,-8.617 5.66,-14.052 -2.314,-5.43 -8.616,-7.973 -14.052,-5.657 -5.433,2.313 -7.968,8.62 -5.656,14.051" />
          </g>
          <g
             transform="translate(222.7666,1807.498)"
             id="g4142">
            <path
               inkscape:connector-curvature="0"
               id="path4144"
               style="fill:#1b61ad;fill-opacity:1;fill-rule:nonzero;stroke:none"
               d="m 0,0 c 0.271,0.639 1.006,0.939 1.646,0.666 l 9.873,-4.203 c 0.636,-0.27 0.931,-1.008 0.659,-1.649 -0.271,-0.636 -1.006,-0.931 -1.643,-0.661 L 0.664,-1.643 C 0.022,-1.369 -0.272,-0.635 0,0" />
          </g>
          <g
             transform="translate(219.1533,1816.4707)"
             id="g4146">
            <path
               inkscape:connector-curvature="0"
               id="path4148"
               style="fill:#1b61ad;fill-opacity:1;fill-rule:nonzero;stroke:none"
               d="m 0,0 c 0.127,0.295 0.362,0.539 0.686,0.672 0.64,0.259 1.375,-0.053 1.632,-0.693 l 3.614,-8.971 c 0.257,-0.647 -0.054,-1.375 -0.698,-1.631 l -8.436,-3.398 c -0.642,-0.26 -1.372,0.05 -1.631,0.695 -0.259,0.642 0.052,1.373 0.694,1.631 l 7.272,2.927 -3.142,7.807 C -0.14,-0.641 -0.124,-0.297 0,0" />
          </g>
          <g
             transform="translate(206.8594,1767.9922)"
             id="g4150">
            <path
               inkscape:connector-curvature="0"
               id="path4152"
               style="fill:#1b61ad;fill-opacity:1;fill-rule:nonzero;stroke:none"
               d="m 0,0 c -0.694,0 -1.257,0.559 -1.257,1.256 l 0,10.728 c 0,0.694 0.563,1.254 1.257,1.254 0.692,0 1.253,-0.56 1.253,-1.254 l 0,-10.728 C 1.253,0.559 0.692,0 0,0" />
          </g>
          <g
             transform="translate(200.0215,1761.1543)"
             id="g4154">
            <path
               inkscape:connector-curvature="0"
               id="path4156"
               style="fill:#1b61ad;fill-opacity:1;fill-rule:nonzero;stroke:none"
               d="m 0,0 c -0.32,0 -0.639,0.123 -0.888,0.367 -0.489,0.49 -0.489,1.285 0,1.774 L 5.95,8.979 c 0.491,0.492 1.285,0.492 1.774,0 l 6.429,-6.432 c 0.493,-0.488 0.493,-1.281 0,-1.774 -0.488,-0.488 -1.282,-0.488 -1.773,0 L 6.838,6.316 0.886,0.367 C 0.644,0.123 0.321,0 0,0" />
          </g>
          <g
             transform="translate(192.0615,1759.4668)"
             id="g4158">
            <path
               inkscape:connector-curvature="0"
               id="path4160"
               style="fill:#1b61ad;fill-opacity:1;fill-rule:nonzero;stroke:none"
               d="m 0,0 c -4.521,0 -8.199,-3.676 -8.199,-8.201 0,-4.522 3.678,-8.201 8.199,-8.201 4.521,0 8.201,3.679 8.201,8.201 C 8.201,-3.676 4.521,0 0,0 m 0,-18.912 c -5.908,0 -10.711,4.805 -10.711,10.711 0,5.906 4.803,10.711 10.711,10.711 5.906,0 10.711,-4.805 10.711,-10.711 0,-5.906 -4.805,-10.711 -10.711,-10.711" />
          </g>
          <g
             transform="translate(178.0029,1803.4551)"
             id="g4162">
            <path
               inkscape:connector-curvature="0"
               id="path4164"
               style="fill:#1b61ad;fill-opacity:1;fill-rule:nonzero;stroke:none"
               d="m 0,0 c 0.297,-0.627 0.031,-1.375 -0.599,-1.672 l -9.703,-4.58 c -0.625,-0.295 -1.374,-0.025 -1.67,0.604 -0.296,0.625 -0.026,1.371 0.6,1.668 l 9.703,4.578 C -1.039,0.896 -0.295,0.625 0,0" />
          </g>
          <g
             transform="translate(187.1055,1800.1895)"
             id="g4166">
            <path
               inkscape:connector-curvature="0"
               id="path4168"
               style="fill:#1b61ad;fill-opacity:1;fill-rule:nonzero;stroke:none"
               d="m 0,0 c 0.136,-0.289 0.161,-0.629 0.048,-0.959 -0.236,-0.65 -0.954,-0.99 -1.606,-0.758 l -9.102,3.266 c -0.653,0.234 -0.993,0.953 -0.758,1.605 l 3.073,8.558 c 0.234,0.653 0.95,0.993 1.606,0.759 0.649,-0.235 0.987,-0.951 0.757,-1.604 L -8.631,3.488 -0.71,0.645 C -0.386,0.529 -0.137,0.291 0,0" />
          </g>
          <g
             id="g4170">
            <g
               id="g4172" />
            <g
               id="g4178">
              <g
                 style="opacity:0.39999402"
                 id="g4180"
                 clip-path="url(#clipPath4174)">
                <g
                   id="g4182"
                   transform="translate(238.4609,1788.9844)">
                  <path
                     inkscape:connector-curvature="0"
                     id="path4184"
                     style="fill:#1b61ad;fill-opacity:1;fill-rule:nonzero;stroke:none"
                     d="M 0,0 -26.953,46.682 0,93.363 l 53.902,0 L 80.854,46.682 53.902,0 0,0 Z" />
                </g>
              </g>
            </g>
          </g>
          <g
             id="g4186">
            <g
               id="g4188" />
            <g
               id="g4194">
              <g
                 style="opacity:0.39999402"
                 id="g4196"
                 clip-path="url(#clipPath4190)">
                <g
                   id="g4198"
                   transform="translate(183.6328,1696.2813)">
                  <path
                     inkscape:connector-curvature="0"
                     id="path4200"
                     style="fill:#1b61ad;fill-opacity:1;fill-rule:nonzero;stroke:none"
                     d="M 0,0 -26.952,46.682 0,93.363 l 53.903,0 L 80.854,46.682 53.903,0 0,0 Z" />
                </g>
              </g>
            </g>
          </g>
        </g>
      </g>
      <g
         transform="translate(202.0166,1740.7188)"
         id="g4210">
        <path
           inkscape:connector-curvature="0"
           id="path4212"
           style="fill:none;stroke:#1b61ad;stroke-width:1;stroke-linecap:butt;stroke-linejoin:miter;stroke-miterlimit:10;stroke-dasharray:none;stroke-opacity:1"
           d="m 0,0 c -3.118,0 -6.944,2.209 -8.504,4.91 l -23.232,40.242 c -1.56,2.702 -1.56,7.119 0,9.821 l 23.232,40.242 c 1.56,2.701 5.386,4.91 8.504,4.91 l 46.47,0 c 3.118,0 6.944,-2.209 8.504,-4.91 L 78.207,54.973 c 1.56,-2.702 1.56,-7.119 0,-9.821 L 54.974,4.91 C 53.414,2.209 49.588,0 46.47,0 L 0,0 Z" />
      </g>
    </g>
  </g>
</svg>
