<?xml version="1.0" encoding="UTF-8" standalone="no"?>
<!-- Created with Inkscape (http://www.inkscape.org/) -->

<svg
   xmlns:dc="http://purl.org/dc/elements/1.1/"
   xmlns:cc="http://creativecommons.org/ns#"
   xmlns:rdf="http://www.w3.org/1999/02/22-rdf-syntax-ns#"
   xmlns:svg="http://www.w3.org/2000/svg"
   xmlns="http://www.w3.org/2000/svg"
   xmlns:sodipodi="http://sodipodi.sourceforge.net/DTD/sodipodi-0.dtd"
   xmlns:inkscape="http://www.inkscape.org/namespaces/inkscape"
   width="200"
   height="200"
   viewBox="0 0 199.99999 199.99999"
   id="svg13825"
   version="1.1"
   inkscape:version="0.91 r13725"
   sodipodi:docname="l3.svg">
  <defs
     id="defs13827">
    <clipPath
       clipPathUnits="userSpaceOnUse"
       id="clipPath3958">
      <path
         d="m 704.729,2128.11 112.845,0 0,-112.85 -112.845,0 0,112.85 z"
         id="path3960"
         inkscape:connector-curvature="0" />
    </clipPath>
    <clipPath
       clipPathUnits="userSpaceOnUse"
       id="clipPath4074">
      <path
         d="m 198.301,1837.463 -26.953,-46.682 26.953,-46.679 53.902,0 26.953,46.679 -26.953,46.682 -53.902,0 z"
         id="path4076"
         inkscape:connector-curvature="0" />
    </clipPath>
    <clipPath
       clipPathUnits="userSpaceOnUse"
       id="clipPath4174">
      <path
         d="m 211.508,1882.35 107.807,0 0,-93.37 -107.807,0 0,93.37 z"
         id="path4176"
         inkscape:connector-curvature="0" />
    </clipPath>
    <clipPath
       clipPathUnits="userSpaceOnUse"
       id="clipPath4190">
      <path
         d="m 156.681,1789.64 107.806,0 0,-93.36 -107.806,0 0,93.36 z"
         id="path4192"
         inkscape:connector-curvature="0" />
    </clipPath>
    <clipPath
       clipPathUnits="userSpaceOnUse"
       id="clipPath4058">
      <path
         d="m 721.063,1586.58 95.027,0 0,-90.17 -95.027,0 0,90.17 z"
         id="path4060"
         inkscape:connector-curvature="0" />
    </clipPath>
  </defs>
  <sodipodi:namedview
     id="base"
     pagecolor="#ffffff"
     bordercolor="#666666"
     borderopacity="1.0"
     inkscape:pageopacity="0.0"
     inkscape:pageshadow="2"
     inkscape:zoom="1.6191406"
     inkscape:cx="-17.662715"
     inkscape:cy="122.41354"
     inkscape:document-units="px"
     inkscape:current-layer="layer1"
     showgrid="false"
     units="px"
     inkscape:window-width="960"
     inkscape:window-height="1062"
     inkscape:window-x="0"
     inkscape:window-y="18"
     inkscape:window-maximized="0" />
  <metadata
     id="metadata13830">
    <rdf:RDF>
      <cc:Work
         rdf:about="">
        <dc:format>image/svg+xml</dc:format>
        <dc:type
           rdf:resource="http://purl.org/dc/dcmitype/StillImage" />
        <dc:title />
      </cc:Work>
    </rdf:RDF>
  </metadata>
  <g
     inkscape:label="Layer 1"
     inkscape:groupmode="layer"
     id="layer1"
     transform="translate(0,-852.36225)">
    <rect
       y="852.36224"
       x="3.3378615e-06"
       height="199.99997"
       width="199.99997"
       id="rect3340"
       style="opacity:1;fill:#f1efee;fill-opacity:1;stroke:none;stroke-width:1.18636501;stroke-miterlimit:4;stroke-dasharray:none;stroke-opacity:1" />
    <g
       transform="matrix(1.7957341,0,0,-1.7957341,-1290.4352,3725.7312)"
       id="g13741">
      <g
         transform="translate(729.96751,1505.8378)"
         id="g4030">
        <path
           inkscape:connector-curvature="0"
           id="path4032"
           style="fill:none;stroke:#1b61ad;stroke-width:3;stroke-linecap:butt;stroke-linejoin:miter;stroke-miterlimit:10;stroke-dasharray:none;stroke-opacity:1"
           d="m 0,0 -9.856,-0.063 c 0,23.467 17.642,42.489 39.407,42.489 21.095,0 38.759,-19.399 39.796,-41.867 L 58.324,0.705" />
      </g>
      <g
         transform="translate(779.18431,1531.3202)"
         id="g4034">
        <path
           inkscape:connector-curvature="0"
           id="path4036"
           style="fill:none;stroke:#1b61ad;stroke-width:3;stroke-linecap:butt;stroke-linejoin:miter;stroke-miterlimit:10;stroke-dasharray:none;stroke-opacity:1"
           d="M 0,0 6.579,7.068" />
      </g>
      <g
         transform="translate(758.60811,1539.6308)"
         id="g4038">
        <path
           inkscape:connector-curvature="0"
           id="path4040"
           style="fill:none;stroke:#1b61ad;stroke-width:3;stroke-linecap:butt;stroke-linejoin:miter;stroke-miterlimit:10;stroke-dasharray:none;stroke-opacity:1"
           d="M 0,0 0,9.855" />
      </g>
      <g
         transform="translate(737.16971,1530.6601)"
         id="g4042">
        <path
           inkscape:connector-curvature="0"
           id="path4044"
           style="fill:none;stroke:#1b61ad;stroke-width:3;stroke-linecap:butt;stroke-linejoin:miter;stroke-miterlimit:10;stroke-dasharray:none;stroke-opacity:1"
           d="M 0,0 -5.566,5.977" />
      </g>
      <g
         transform="translate(771.73611,1528.5224)"
         id="g4046">
        <path
           inkscape:connector-curvature="0"
           id="path4048"
           style="fill:#1b61ad;fill-opacity:1;fill-rule:nonzero;stroke:none"
           d="m 0,0 -13.047,-13.122 c -0.214,0.049 -0.435,0.08 -0.666,0.08 -1.67,0 -3.022,-1.355 -3.022,-3.023 0,-1.671 1.352,-3.024 3.022,-3.024 1.67,0 3.023,1.353 3.023,3.024 0,0.373 -0.076,0.724 -0.199,1.052 L 0,0 Z" />
      </g>
      <g
         transform="translate(767.20771,1506.5273)"
         id="g4050">
        <path
           inkscape:connector-curvature="0"
           id="path4052"
           style="fill:#1b61ad;fill-opacity:1;fill-rule:nonzero;stroke:none"
           d="m 0,0 c 0,-0.605 -0.402,-1.098 -0.899,-1.098 l -15.347,0 c -0.496,0 -0.9,0.493 -0.9,1.098 0,0.605 0.404,1.098 0.9,1.098 l 15.347,0 C -0.402,1.098 0,0.605 0,0" />
      </g>
      <g
         transform="translate(13.897211,2.925729)"
         id="g4054">
        <g
           id="g4056" />
        <g
           id="g4062">
          <g
             style="opacity:0.39999402"
             id="g4064"
             clip-path="url(#clipPath4058)">
            <g
               id="g4066"
               transform="translate(816.082,1497.043)">
              <path
                 inkscape:connector-curvature="0"
                 id="path4068"
                 style="fill:#1b61ad;fill-opacity:1;fill-rule:nonzero;stroke:none"
                 d="M 0,0 C 0.508,40.447 -25.358,76.725 -63.569,89.537 L -95.019,-0.637 0,0 Z" />
            </g>
          </g>
        </g>
      </g>
    </g>
  </g>
</svg>
