<?xml version="1.0" encoding="UTF-8" standalone="no"?>
<!-- Created with Inkscape (http://www.inkscape.org/) -->

<svg
   xmlns:dc="http://purl.org/dc/elements/1.1/"
   xmlns:cc="http://creativecommons.org/ns#"
   xmlns:rdf="http://www.w3.org/1999/02/22-rdf-syntax-ns#"
   xmlns:svg="http://www.w3.org/2000/svg"
   xmlns="http://www.w3.org/2000/svg"
   xmlns:sodipodi="http://sodipodi.sourceforge.net/DTD/sodipodi-0.dtd"
   xmlns:inkscape="http://www.inkscape.org/namespaces/inkscape"
   width="200"
   height="200"
   viewBox="0 0 199.99999 199.99999"
   id="svg13825"
   version="1.1"
   inkscape:version="0.91 r13725"
   sodipodi:docname="l4.svg">
  <defs
     id="defs13827">
    <clipPath
       clipPathUnits="userSpaceOnUse"
       id="clipPath3958">
      <path
         d="m 704.729,2128.11 112.845,0 0,-112.85 -112.845,0 0,112.85 z"
         id="path3960"
         inkscape:connector-curvature="0" />
    </clipPath>
    <clipPath
       clipPathUnits="userSpaceOnUse"
       id="clipPath4074">
      <path
         d="m 198.301,1837.463 -26.953,-46.682 26.953,-46.679 53.902,0 26.953,46.679 -26.953,46.682 -53.902,0 z"
         id="path4076"
         inkscape:connector-curvature="0" />
    </clipPath>
    <clipPath
       clipPathUnits="userSpaceOnUse"
       id="clipPath4174">
      <path
         d="m 211.508,1882.35 107.807,0 0,-93.37 -107.807,0 0,93.37 z"
         id="path4176"
         inkscape:connector-curvature="0" />
    </clipPath>
    <clipPath
       clipPathUnits="userSpaceOnUse"
       id="clipPath4190">
      <path
         d="m 156.681,1789.64 107.806,0 0,-93.36 -107.806,0 0,93.36 z"
         id="path4192"
         inkscape:connector-curvature="0" />
    </clipPath>
    <clipPath
       clipPathUnits="userSpaceOnUse"
       id="clipPath4058">
      <path
         d="m 721.063,1586.58 95.027,0 0,-90.17 -95.027,0 0,90.17 z"
         id="path4060"
         inkscape:connector-curvature="0" />
    </clipPath>
    <clipPath
       clipPathUnits="userSpaceOnUse"
       id="clipPath4310">
      <path
         d="m 228.971,1347.37 26.726,0 0,-28.18 -26.726,0 0,28.18 z"
         id="path4312"
         inkscape:connector-curvature="0" />
    </clipPath>
    <clipPath
       clipPathUnits="userSpaceOnUse"
       id="clipPath4324">
      <path
         d="m 181.541,1311.82 40.68,0 0,-40.04 -40.68,0 0,40.04 z"
         id="path4326"
         inkscape:connector-curvature="0" />
    </clipPath>
  </defs>
  <sodipodi:namedview
     id="base"
     pagecolor="#ffffff"
     bordercolor="#666666"
     borderopacity="1.0"
     inkscape:pageopacity="0.0"
     inkscape:pageshadow="2"
     inkscape:zoom="1.6191406"
     inkscape:cx="-17.662715"
     inkscape:cy="122.41354"
     inkscape:document-units="px"
     inkscape:current-layer="layer1"
     showgrid="false"
     units="px"
     inkscape:window-width="960"
     inkscape:window-height="1062"
     inkscape:window-x="0"
     inkscape:window-y="18"
     inkscape:window-maximized="0" />
  <metadata
     id="metadata13830">
    <rdf:RDF>
      <cc:Work
         rdf:about="">
        <dc:format>image/svg+xml</dc:format>
        <dc:type
           rdf:resource="http://purl.org/dc/dcmitype/StillImage" />
        <dc:title />
      </cc:Work>
    </rdf:RDF>
  </metadata>
  <g
     inkscape:label="Layer 1"
     inkscape:groupmode="layer"
     id="layer1"
     transform="translate(0,-852.36225)">
    <rect
       y="852.36224"
       x="3.3378615e-06"
       height="199.99997"
       width="199.99997"
       id="rect3340"
       style="opacity:1;fill:#f1efee;fill-opacity:1;stroke:none;stroke-width:1.18636501;stroke-miterlimit:4;stroke-dasharray:none;stroke-opacity:1" />
    <g
       transform="matrix(2.0521848,0,0,-2.0521848,-362.25946,3648.396)"
       id="g13682">
      <g
         transform="translate(239.1289,1359.418)"
         id="g4214">
        <path
           inkscape:connector-curvature="0"
           id="path4216"
           style="fill:none;stroke:#1b61ad;stroke-width:2;stroke-linecap:butt;stroke-linejoin:miter;stroke-miterlimit:10;stroke-dasharray:none;stroke-opacity:1"
           d="M 0,0 C 19.592,-5.946 33.852,-24.146 33.852,-45.678" />
      </g>
      <g
         transform="translate(182.6758,1335.3301)"
         id="g4218">
        <path
           inkscape:connector-curvature="0"
           id="path4220"
           style="fill:none;stroke:#1b61ad;stroke-width:2;stroke-linecap:butt;stroke-linejoin:miter;stroke-miterlimit:10;stroke-dasharray:none;stroke-opacity:1"
           d="m 0,0 c 7.881,15.508 23.988,26.137 42.576,26.137 4.828,0 9.487,-0.717 13.877,-2.049" />
      </g>
      <g
         transform="translate(191.8398,1279.6563)"
         id="g4222">
        <path
           inkscape:connector-curvature="0"
           id="path4224"
           style="fill:none;stroke:#1b61ad;stroke-width:2;stroke-linecap:butt;stroke-linejoin:miter;stroke-miterlimit:10;stroke-dasharray:none;stroke-opacity:1"
           d="M 0,0 C -8.834,8.662 -14.316,20.732 -14.316,34.084" />
      </g>
      <g
         transform="translate(249.6816,1272.7285)"
         id="g4226">
        <path
           inkscape:connector-curvature="0"
           id="path4228"
           style="fill:none;stroke:#1b61ad;stroke-width:2;stroke-linecap:butt;stroke-linejoin:miter;stroke-miterlimit:10;stroke-dasharray:none;stroke-opacity:1"
           d="m 0,0 c -7.146,-4.266 -15.502,-6.719 -24.43,-6.719 -13.008,0 -24.802,5.205 -33.412,13.647" />
      </g>
      <g
         transform="translate(244.6992,1331.0547)"
         id="g4230">
        <path
           inkscape:connector-curvature="0"
           id="path4232"
           style="fill:none;stroke:#1b61ad;stroke-width:2;stroke-linecap:butt;stroke-linejoin:miter;stroke-miterlimit:10;stroke-dasharray:none;stroke-opacity:1"
           d="M 0,0 C 4.102,-4.602 6.592,-10.668 6.592,-17.314" />
      </g>
      <g
         transform="translate(203.8945,1328.6387)"
         id="g4234">
        <path
           inkscape:connector-curvature="0"
           id="path4236"
           style="fill:none;stroke:#1b61ad;stroke-width:2;stroke-linecap:butt;stroke-linejoin:miter;stroke-miterlimit:10;stroke-dasharray:none;stroke-opacity:1"
           d="m 0,0 c 4.707,6.732 12.52,11.141 21.357,11.141 1.799,0 3.553,-0.184 5.248,-0.53" />
      </g>
      <g
         transform="translate(242.4629,1294.1973)"
         id="g4238">
        <path
           inkscape:connector-curvature="0"
           id="path4240"
           style="fill:none;stroke:#1b61ad;stroke-width:2;stroke-linecap:butt;stroke-linejoin:miter;stroke-miterlimit:10;stroke-dasharray:none;stroke-opacity:1"
           d="m 0,0 c -4.59,-4.047 -10.613,-6.498 -17.211,-6.498 -8.447,0 -15.955,4.021 -20.713,10.256" />
      </g>
      <g
         transform="translate(203.9453,1282.1406)"
         id="g4242">
        <path
           inkscape:connector-curvature="0"
           id="path4244"
           style="fill:none;stroke:#1b61ad;stroke-width:2;stroke-linecap:butt;stroke-linejoin:miter;stroke-miterlimit:10;stroke-dasharray:none;stroke-opacity:1"
           d="m 0,0 c -10.137,6.848 -16.801,18.445 -16.801,31.6 0,10.259 4.057,19.574 10.653,26.425" />
      </g>
      <g
         transform="translate(242.334,1279.6641)"
         id="g4246">
        <path
           inkscape:connector-curvature="0"
           id="path4248"
           style="fill:none;stroke:#1b61ad;stroke-width:2;stroke-linecap:butt;stroke-linejoin:miter;stroke-miterlimit:10;stroke-dasharray:none;stroke-opacity:1"
           d="M 0,0 C -5.137,-2.58 -10.939,-4.033 -17.082,-4.033" />
      </g>
      <g
         transform="translate(262.7832,1307.1016)"
         id="g4250">
        <path
           inkscape:connector-curvature="0"
           id="path4252"
           style="fill:none;stroke:#1b61ad;stroke-width:2;stroke-linecap:butt;stroke-linejoin:miter;stroke-miterlimit:10;stroke-dasharray:none;stroke-opacity:1"
           d="M 0,0 C -2.113,-12.033 -9.873,-22.125 -20.449,-27.438" />
      </g>
      <g
         transform="translate(263.3594,1313.7402)"
         id="g4254">
        <path
           inkscape:connector-curvature="0"
           id="path4256"
           style="fill:none;stroke:#1b61ad;stroke-width:2;stroke-linecap:butt;stroke-linejoin:miter;stroke-miterlimit:10;stroke-dasharray:none;stroke-opacity:1"
           d="M 0,0 C 0,-2.264 -0.197,-4.482 -0.576,-6.639" />
      </g>
      <g
         transform="translate(225.252,1351.8457)"
         id="g4258">
        <path
           inkscape:connector-curvature="0"
           id="path4260"
           style="fill:none;stroke:#1b61ad;stroke-width:2;stroke-linecap:butt;stroke-linejoin:miter;stroke-miterlimit:10;stroke-dasharray:none;stroke-opacity:1"
           d="M 0,0 C 12.496,0 23.588,-6.014 30.535,-15.307" />
      </g>
      <g
         transform="translate(235.3242,1328.6758)"
         id="g4262">
        <path
           inkscape:connector-curvature="0"
           id="path4264"
           style="fill:none;stroke:#1b61ad;stroke-width:2;stroke-linecap:butt;stroke-linejoin:miter;stroke-miterlimit:10;stroke-dasharray:none;stroke-opacity:1"
           d="m 0,0 c 4.791,-3.238 7.941,-8.721 7.941,-14.938 0,-1.052 -0.089,-2.083 -0.261,-3.086" />
      </g>
      <g
         transform="translate(212.9395,1326.8848)"
         id="g4266">
        <path
           inkscape:connector-curvature="0"
           id="path4268"
           style="fill:none;stroke:#1b61ad;stroke-width:2;stroke-linecap:butt;stroke-linejoin:miter;stroke-miterlimit:10;stroke-dasharray:none;stroke-opacity:1"
           d="M 0,0 C 3.221,3.017 7.551,4.865 12.313,4.865" />
      </g>
      <g
         transform="translate(211.7734,1301.7871)"
         id="g4270">
        <path
           inkscape:connector-curvature="0"
           id="path4272"
           style="fill:none;stroke:#1b61ad;stroke-width:2;stroke-linecap:butt;stroke-linejoin:miter;stroke-miterlimit:10;stroke-dasharray:none;stroke-opacity:1"
           d="m 0,0 c -2.822,3.18 -4.535,7.364 -4.535,11.951 0,1.297 0.137,2.561 0.398,3.779" />
      </g>
      <g
         transform="translate(235.9961,1299.2764)"
         id="g4274">
        <path
           inkscape:connector-curvature="0"
           id="path4276"
           style="fill:none;stroke:#1b61ad;stroke-width:2;stroke-linecap:butt;stroke-linejoin:miter;stroke-miterlimit:10;stroke-dasharray:none;stroke-opacity:1"
           d="M 0,0 C -3,-2.229 -6.719,-3.552 -10.744,-3.552" />
      </g>
      <g
         transform="translate(216.2402,1336.5801)"
         id="g4278">
        <path
           inkscape:connector-curvature="0"
           id="path4280"
           style="fill:#1b61ad;fill-opacity:1;fill-rule:nonzero;stroke:none"
           d="m 0,0 c 0,-1.824 -1.479,-3.301 -3.301,-3.301 -1.822,0 -3.301,1.477 -3.301,3.301 0,1.82 1.479,3.299 3.301,3.299 C -1.479,3.299 0,1.82 0,0" />
      </g>
      <g
         transform="translate(191.2813,1307.1016)"
         id="g4282">
        <path
           inkscape:connector-curvature="0"
           id="path4284"
           style="fill:#1b61ad;fill-opacity:1;fill-rule:nonzero;stroke:none"
           d="m 0,0 c 0,-1.822 -1.477,-3.301 -3.299,-3.301 -1.822,0 -3.299,1.479 -3.299,3.301 0,1.822 1.477,3.3 3.299,3.3 C -1.477,3.3 0,1.822 0,0" />
      </g>
      <g
         transform="translate(228.5508,1313.7402)"
         id="g4286">
        <path
           inkscape:connector-curvature="0"
           id="path4288"
           style="fill:#1b61ad;fill-opacity:1;fill-rule:nonzero;stroke:none"
           d="m 0,0 c 0,-1.824 -1.477,-3.301 -3.299,-3.301 -1.822,0 -3.299,1.477 -3.299,3.301 0,1.82 1.477,3.299 3.299,3.299 C -1.477,3.299 0,1.82 0,0" />
      </g>
      <g
         transform="translate(259.0879,1336.5801)"
         id="g4290">
        <path
           inkscape:connector-curvature="0"
           id="path4292"
           style="fill:#1b61ad;fill-opacity:1;fill-rule:nonzero;stroke:none"
           d="m 0,0 c 0,-1.824 -1.477,-3.301 -3.301,-3.301 -1.82,0 -3.299,1.477 -3.299,3.301 0,1.82 1.479,3.299 3.299,3.299 C -1.477,3.299 0,1.82 0,0" />
      </g>
      <g
         transform="translate(254.5918,1285.373)"
         id="g4294">
        <path
           inkscape:connector-curvature="0"
           id="path4296"
           style="fill:#1b61ad;fill-opacity:1;fill-rule:nonzero;stroke:none"
           d="m 0,0 c 0,-1.822 -1.479,-3.299 -3.301,-3.299 -1.82,0 -3.299,1.477 -3.299,3.299 0,1.821 1.479,3.301 3.299,3.301 C -1.479,3.301 0,1.821 0,0" />
      </g>
      <g
         transform="translate(212.418,1313.7383)"
         id="g4298">
        <path
           inkscape:connector-curvature="0"
           id="path4300"
           style="fill:none;stroke:#1a5ca2;stroke-width:1;stroke-linecap:butt;stroke-linejoin:miter;stroke-miterlimit:10;stroke-dasharray:none;stroke-opacity:1"
           d="M 0,0 25.668,0" />
      </g>
      <g
         transform="translate(225.252,1327.748)"
         id="g4302">
        <path
           inkscape:connector-curvature="0"
           id="path4304"
           style="fill:none;stroke:#1a5ca2;stroke-width:1;stroke-linecap:butt;stroke-linejoin:miter;stroke-miterlimit:10;stroke-dasharray:none;stroke-opacity:1"
           d="M 0,0 0,-28.018" />
      </g>
      <g
         id="g4306">
        <g
           id="g4308" />
        <g
           id="g4314">
          <g
             style="opacity:0.39999402"
             id="g4316"
             clip-path="url(#clipPath4310)">
            <path
               inkscape:connector-curvature="0"
               id="path4318"
               style="fill:#1b61ad;fill-opacity:1;fill-rule:nonzero;stroke:none"
               d="m 255.697,1319.186 -26.727,0 0,28.188 26.727,0 0,-28.188 z" />
          </g>
        </g>
      </g>
      <g
         id="g4320">
        <g
           id="g4322" />
        <g
           id="g4328">
          <g
             style="opacity:0.39999402"
             id="g4330"
             clip-path="url(#clipPath4324)">
            <g
               id="g4332"
               transform="translate(181.541,1311.8242)">
              <path
                 inkscape:connector-curvature="0"
                 id="path4334"
                 style="fill:#1b61ad;fill-opacity:1;fill-rule:nonzero;stroke:none"
                 d="M 0,0 C 1.682,-19.27 19.68,-40.189 40.631,-40.043 L 40.68,-0.9 0,0 Z" />
            </g>
          </g>
        </g>
      </g>
    </g>
  </g>
</svg>
