<?xml version="1.0" encoding="UTF-8" standalone="no"?>
<!-- Created with Inkscape (http://www.inkscape.org/) -->

<svg
   xmlns:dc="http://purl.org/dc/elements/1.1/"
   xmlns:cc="http://creativecommons.org/ns#"
   xmlns:rdf="http://www.w3.org/1999/02/22-rdf-syntax-ns#"
   xmlns:svg="http://www.w3.org/2000/svg"
   xmlns="http://www.w3.org/2000/svg"
   xmlns:sodipodi="http://sodipodi.sourceforge.net/DTD/sodipodi-0.dtd"
   xmlns:inkscape="http://www.inkscape.org/namespaces/inkscape"
   width="200"
   height="200"
   viewBox="0 0 199.99999 199.99999"
   id="svg13825"
   version="1.1"
   inkscape:version="0.91 r13725"
   sodipodi:docname="l5.svg">
  <defs
     id="defs13827">
    <clipPath
       clipPathUnits="userSpaceOnUse"
       id="clipPath3958">
      <path
         d="m 704.729,2128.11 112.845,0 0,-112.85 -112.845,0 0,112.85 z"
         id="path3960"
         inkscape:connector-curvature="0" />
    </clipPath>
    <clipPath
       clipPathUnits="userSpaceOnUse"
       id="clipPath4074">
      <path
         d="m 198.301,1837.463 -26.953,-46.682 26.953,-46.679 53.902,0 26.953,46.679 -26.953,46.682 -53.902,0 z"
         id="path4076"
         inkscape:connector-curvature="0" />
    </clipPath>
    <clipPath
       clipPathUnits="userSpaceOnUse"
       id="clipPath4174">
      <path
         d="m 211.508,1882.35 107.807,0 0,-93.37 -107.807,0 0,93.37 z"
         id="path4176"
         inkscape:connector-curvature="0" />
    </clipPath>
    <clipPath
       clipPathUnits="userSpaceOnUse"
       id="clipPath4190">
      <path
         d="m 156.681,1789.64 107.806,0 0,-93.36 -107.806,0 0,93.36 z"
         id="path4192"
         inkscape:connector-curvature="0" />
    </clipPath>
    <clipPath
       clipPathUnits="userSpaceOnUse"
       id="clipPath4058">
      <path
         d="m 721.063,1586.58 95.027,0 0,-90.17 -95.027,0 0,90.17 z"
         id="path4060"
         inkscape:connector-curvature="0" />
    </clipPath>
    <clipPath
       clipPathUnits="userSpaceOnUse"
       id="clipPath4310">
      <path
         d="m 228.971,1347.37 26.726,0 0,-28.18 -26.726,0 0,28.18 z"
         id="path4312"
         inkscape:connector-curvature="0" />
    </clipPath>
    <clipPath
       clipPathUnits="userSpaceOnUse"
       id="clipPath4324">
      <path
         d="m 181.541,1311.82 40.68,0 0,-40.04 -40.68,0 0,40.04 z"
         id="path4326"
         inkscape:connector-curvature="0" />
    </clipPath>
    <clipPath
       clipPathUnits="userSpaceOnUse"
       id="clipPath3118">
      <path
         d="m 706.456,1115.66 109.391,0 0,-71.23 -109.391,0 0,71.23 z"
         id="path3120"
         inkscape:connector-curvature="0" />
    </clipPath>
  </defs>
  <sodipodi:namedview
     id="base"
     pagecolor="#ffffff"
     bordercolor="#666666"
     borderopacity="1.0"
     inkscape:pageopacity="0.0"
     inkscape:pageshadow="2"
     inkscape:zoom="1.6191406"
     inkscape:cx="-17.662715"
     inkscape:cy="122.41354"
     inkscape:document-units="px"
     inkscape:current-layer="layer1"
     showgrid="false"
     units="px"
     inkscape:window-width="960"
     inkscape:window-height="1062"
     inkscape:window-x="0"
     inkscape:window-y="18"
     inkscape:window-maximized="0" />
  <metadata
     id="metadata13830">
    <rdf:RDF>
      <cc:Work
         rdf:about="">
        <dc:format>image/svg+xml</dc:format>
        <dc:type
           rdf:resource="http://purl.org/dc/dcmitype/StillImage" />
        <dc:title />
      </cc:Work>
    </rdf:RDF>
  </metadata>
  <g
     inkscape:label="Layer 1"
     inkscape:groupmode="layer"
     id="layer1"
     transform="translate(0,-852.36225)">
    <rect
       y="852.36224"
       x="3.3378615e-06"
       height="199.99997"
       width="199.99997"
       id="rect3340"
       style="opacity:1;fill:#f1efee;fill-opacity:1;stroke:none;stroke-width:1.18636501;stroke-miterlimit:4;stroke-dasharray:none;stroke-opacity:1" />
    <g
       transform="matrix(1.8283088,0,0,-1.8283088,-1317.0281,2922.6899)"
       id="g13761">
      <g
         transform="translate(13.897211,2.925729)"
         id="g3114">
        <g
           id="g3116" />
        <g
           id="g3122">
          <g
             style="opacity:0.39999402"
             id="g3124"
             clip-path="url(#clipPath3118)">
            <g
               id="g3126"
               transform="translate(815.8467,1059.4277)">
              <path
                 inkscape:connector-curvature="0"
                 id="path3128"
                 style="fill:#1b61ad;fill-opacity:1;fill-rule:nonzero;stroke:none"
                 d="m 0,0 c 0,-8.285 -6.717,-15.002 -15.004,-15.002 l -79.383,0 c -8.285,0 -15.004,6.717 -15.004,15.002 l 0,41.234 c 0,8.286 6.719,15.002 15.004,15.002 l 79.383,0 C -6.717,56.236 0,49.52 0,41.234 L 0,0 Z" />
            </g>
          </g>
        </g>
      </g>
      <path
         inkscape:connector-curvature="0"
         id="path3130"
         style="fill:#1b61ad;fill-opacity:1;fill-rule:nonzero;stroke:none"
         d="m 757.64821,1036.7697 -17.779,0 0,17.779 17.779,0 0,-17.779 z" />
      <path
         inkscape:connector-curvature="0"
         id="path3132"
         style="fill:#1b61ad;fill-opacity:1;fill-rule:nonzero;stroke:none"
         d="m 783.93721,1036.7697 -17.777,0 0,17.779 17.777,0 0,-17.779 z" />
      <path
         inkscape:connector-curvature="0"
         id="path3134"
         style="fill:#1b61ad;fill-opacity:1;fill-rule:nonzero;stroke:none"
         d="m 810.23021,1036.7697 -17.783,0 0,17.779 17.783,0 0,-17.779 z" />
      <g
         transform="translate(801.33961,1058.3564)"
         id="g3136">
        <path
           inkscape:connector-curvature="0"
           id="path3138"
           style="fill:#1b61ad;fill-opacity:1;fill-rule:nonzero;stroke:none"
           d="m 0,0 c -0.775,0 -1.402,0.625 -1.402,1.401 l 0,8.464 -49.776,0 0,-8.464 C -51.178,0.625 -51.811,0 -52.582,0 -53.355,0 -53.98,0.625 -53.98,1.401 l 0,9.863 c 0,0.776 0.625,1.402 1.398,1.402 l 52.582,0 c 0.768,0 1.4,-0.626 1.4,-1.402 l 0,-9.863 C 1.4,0.625 0.768,0 0,0" />
      </g>
      <g
         transform="translate(775.04661,1068.2216)"
         id="g3140">
        <path
           inkscape:connector-curvature="0"
           id="path3142"
           style="fill:#1b61ad;fill-opacity:1;fill-rule:nonzero;stroke:none"
           d="m 0,0 c -0.777,0 -1.4,0.628 -1.4,1.398 l 0,10.557 c 0,0.773 0.623,1.399 1.4,1.399 0.773,0 1.398,-0.626 1.398,-1.399 l 0,-10.557 C 1.398,0.628 0.773,0 0,0" />
      </g>
      <path
         inkscape:connector-curvature="0"
         id="path3144"
         style="fill:#ffffff;fill-opacity:1;fill-rule:nonzero;stroke:none"
         d="m 789.53321,1086.8947 -29.256,0 0,21.457 29.256,0 0,-21.457 z" />
      <path
         inkscape:connector-curvature="0"
         id="path3146"
         style="fill:#1b61ad;fill-opacity:1;fill-rule:nonzero;stroke:none"
         d="m 760.56221,1087.2437 28.971,0 0,18.307 -28.971,0 0,-18.307 z m 30.369,-2.8 -31.769,0 c -0.77,0 -1.397,0.628 -1.397,1.398 l 0,21.111 c 0,0.774 0.627,1.399 1.397,1.399 l 31.769,0 c 0.772,0 1.403,-0.625 1.403,-1.399 l 0,-21.111 c 0,-0.77 -0.631,-1.398 -1.403,-1.398" />
    </g>
  </g>
</svg>
