<?xml version="1.0" encoding="UTF-8" standalone="no"?>
<!-- Generator: Adobe Illustrator 15.1.0, SVG Export Plug-In . SVG Version: 6.00 Build 0)  -->

<svg
   xmlns:dc="http://purl.org/dc/elements/1.1/"
   xmlns:cc="http://creativecommons.org/ns#"
   xmlns:rdf="http://www.w3.org/1999/02/22-rdf-syntax-ns#"
   xmlns:svg="http://www.w3.org/2000/svg"
   xmlns="http://www.w3.org/2000/svg"
   xmlns:sodipodi="http://sodipodi.sourceforge.net/DTD/sodipodi-0.dtd"
   xmlns:inkscape="http://www.inkscape.org/namespaces/inkscape"
   version="1.1"
   x="0px"
   y="0px"
   width="175"
   height="70"
   viewBox="0 0 174.99999 69.999999"
   enable-background="new 0 0 601.53 255.065"
   xml:space="preserve"
   id="svg2"
   inkscape:version="0.91 r13725"
   sodipodi:docname="LogoFooter.svg"><metadata
     id="metadata58"><rdf:RDF><cc:Work
         rdf:about=""><dc:format>image/svg+xml</dc:format><dc:type
           rdf:resource="http://purl.org/dc/dcmitype/StillImage" /><dc:title /></cc:Work></rdf:RDF></metadata><defs
     id="defs56" /><sodipodi:namedview
     pagecolor="#ffffff"
     bordercolor="#666666"
     borderopacity="1"
     objecttolerance="10"
     gridtolerance="10"
     guidetolerance="10"
     inkscape:pageopacity="0"
     inkscape:pageshadow="2"
     inkscape:window-width="960"
     inkscape:window-height="1062"
     id="namedview54"
     showgrid="false"
     inkscape:zoom="1.6815559"
     inkscape:cx="57.811677"
     inkscape:cy="31.725951"
     inkscape:window-x="0"
     inkscape:window-y="18"
     inkscape:window-maximized="0"
     inkscape:current-layer="svg2" /><rect
     style="opacity:1;fill:#333366;fill-opacity:1;stroke:none;stroke-width:1.20000005;stroke-miterlimit:4;stroke-dasharray:none;stroke-opacity:1"
     id="rect3358"
     width="175"
     height="70"
     x="-7.6293945e-06"
     y="3.5527137e-15" /><g
     id="圖層_1"
     transform="matrix(0.31000391,0,0,0.30962786,-4.4575462,-3.9756265)"><g
       display="none"
       id="g5"
       style="display:none"><path
         display="inline"
         stroke-miterlimit="10"
         d="m 236.515,-173.818 c 0.22,0.503 1.119,0.76 3.062,0.572 4.319,-0.422 7.47,-0.844 11.716,-0.292 4.588,0.593 9.335,0.574 13.954,0.946 19.389,1.56 42.121,8.581 49.906,31.266 6.177,17.977 3.337,39.136 1.76,57.664 5.812,-2.943 11.948,-10.377 15.929,-16.21 16.899,-24.761 11.807,-62.075 -11.046,-79.283 -31.248,-23.526 -65.373,-12.101 -65.373,-12.101 -3.673,3.162 -4.712,3.494 -8.412,6.607 -2.932,2.467 -5.727,5.147 -8.792,7.386 -1.66,1.215 -3.052,2.643 -2.704,3.445 z"
         id="path7"
         inkscape:connector-curvature="0"
         style="display:inline;fill:none;stroke:#f22020;stroke-miterlimit:10" /><path
         display="inline"
         stroke-miterlimit="10"
         d="m 249.826,-85.689 -26.539,20.724 c 0,0 62.095,10.541 93.626,-18.697 0,0 -25.416,5.128 -67.087,-2.027 z"
         id="path9"
         inkscape:connector-curvature="0"
         style="display:inline;fill:none;stroke:#f22020;stroke-miterlimit:10" /></g><g
       id="g11"><path
         d="m 360.87,133.036 c 0,7.178 -0.889,13.919 -2.666,20.233 -1.781,6.32 -4.463,12.002 -8.054,17.072 -3.584,5.053 -8.064,9.43 -13.429,13.113 -5.376,3.666 -11.638,6.531 -18.814,8.545 -4.121,1.178 -8.564,1.988 -13.344,2.443 -4.785,0.467 -9.97,0.693 -15.55,0.693 l -27.882,0 0,-123.099 28.163,0 c 5.572,0 10.758,0.22 15.537,0.684 4.791,0.456 9.238,1.277 13.347,2.444 7.183,2.024 13.452,4.844 18.817,8.454 5.364,3.631 9.813,7.906 13.342,12.841 3.524,4.935 6.164,10.497 7.913,16.651 1.747,6.165 2.62,12.805 2.62,19.926 z m -14.903,0 c 0,-11.836 -2.612,-21.439 -7.836,-28.798 -5.212,-7.36 -12.704,-12.577 -22.473,-15.651 -3.72,-1.156 -7.896,-1.959 -12.491,-2.388 -4.594,-0.429 -9.791,-0.638 -15.566,-0.638 l -11.471,0 0,96.052 11.471,0 c 5.775,0 10.973,-0.219 15.566,-0.648 4.596,-0.418 8.771,-1.221 12.491,-2.398 9.769,-3.064 17.261,-8.426 22.473,-16.096 5.224,-7.668 7.836,-17.47 7.836,-29.435 z"
         id="path13"
         inkscape:connector-curvature="0"
         style="fill:#9bb4d1" /><path
         d="m 384.266,87.394 0,-15.914 14.251,0 0,15.913 -14.251,0 z m 0.364,107.743 0,-87.407 14.263,0 0,87.407 -14.263,0 z"
         id="path15"
         inkscape:connector-curvature="0"
         style="fill:#9bb4d1" /><path
         d="m 537.843,183.99 c -0.113,-0.467 -0.267,-0.812 -0.423,-1.014 -0.173,-0.191 -0.364,-0.311 -0.575,-0.311 l -24.304,0 0,-0.209 c 3.796,-2.379 7.28,-5.336 10.434,-8.828 3.163,-3.492 5.877,-7.469 8.145,-11.92 2.271,-4.449 4.029,-9.303 5.239,-14.57 1.23,-5.287 1.845,-10.859 1.845,-16.752 0,-8.943 -1.312,-17.261 -3.947,-24.93 -2.644,-7.67 -6.446,-14.293 -11.419,-19.873 -4.965,-5.58 -11.016,-9.948 -18.162,-13.113 -7.151,-3.166 -15.234,-4.734 -24.24,-4.734 -8.834,0 -16.815,1.568 -23.931,4.734 -7.111,3.165 -13.178,7.561 -18.167,13.204 -5,5.646 -8.861,12.366 -11.599,20.19 -2.726,7.824 -4.084,16.426 -4.084,25.809 0,9.385 1.312,17.971 3.946,25.76 2.644,7.797 6.446,14.453 11.412,20.008 4.977,5.562 11.058,9.867 18.271,12.939 7.198,3.057 15.366,4.588 24.503,4.588 1.719,0 3.595,-0.09 5.403,-0.156 l 50.654,0.156 c 0.211,0 0.402,-0.09 0.575,-0.301 0.165,-0.201 0.294,-0.527 0.423,-1.004 0.118,-0.475 0.188,-1.111 0.27,-1.914 0.063,-0.812 0.091,-1.779 0.091,-2.928 0,-1.213 -0.027,-2.189 -0.091,-2.973 -0.08,-0.766 -0.151,-1.385 -0.269,-1.858 z m -87.174,-14.693 c -3.775,-4.221 -6.751,-9.484 -8.929,-15.768 -2.182,-6.281 -3.273,-13.564 -3.273,-21.855 0,-8.271 1.085,-15.566 3.222,-21.896 2.139,-6.318 5.111,-11.59 8.887,-15.82 3.771,-4.232 8.207,-7.443 13.333,-9.621 5.127,-2.172 10.632,-3.268 16.526,-3.268 5.882,0 11.384,1.096 16.51,3.268 5.122,2.178 9.57,5.389 13.346,9.621 3.764,4.23 6.721,9.502 8.874,15.82 2.142,6.33 3.219,13.626 3.219,21.896 0,8.291 -1.077,15.574 -3.219,21.855 -2.153,6.283 -5.11,11.547 -8.874,15.768 -3.775,4.24 -8.191,7.426 -13.252,9.576 -5.06,2.143 -10.541,3.219 -16.424,3.219 -5.952,0 -11.493,-1.076 -16.615,-3.219 -5.123,-2.15 -9.56,-5.336 -13.331,-9.576 z"
         id="path17"
         inkscape:connector-curvature="0"
         style="fill:#9bb4d1" /><path
         d="m 564.262,87.394 0,-15.914 14.262,0 0,15.913 -14.262,0 z m 0.364,107.743 0,-87.407 14.262,0 0,87.407 -14.262,0 z"
         id="path19"
         inkscape:connector-curvature="0"
         style="fill:#9bb4d1" /></g><g
       id="g21"><path
         d="m 105.62,155.163 c 0,16.072 -13.03,29.099 -29.098,29.099 -16.072,0 -29.103,-13.026 -29.103,-29.099 0,-16.069 13.03,-29.097 29.103,-29.097 16.067,0 29.098,13.028 29.098,29.097 z"
         id="path23"
         inkscape:connector-curvature="0"
         style="fill:#9bb4d1" /><path
         d="m 60.116,199.974 -45.737,36.167 c 0,0 109.333,16.898 161.355,-32.675 0,0 -53.463,9.326 -115.618,-3.492 z"
         id="path25"
         inkscape:connector-curvature="0"
         style="fill:#9bb4d1" /><path
         d="M 37.173,48.092 69.567,18.037 c 0,0 64.681,-21.387 117.185,22.611 33.45,28.029 56.325,116.128 -11.018,162.817 l 0,0 c 0,0 1.601,-15.902 3.207,-40.599 2.166,-33.35 -1.172,-56.156 -16.295,-78.037 C 141.736,54.576 101.67,47.168 37.173,48.092 Z"
         id="path27"
         inkscape:connector-curvature="0"
         style="fill:#9bb4d1" /></g></g><g
     id="圖層_2"
     display="none"
     style="display:none"
     transform="translate(0,-185.065)"><g
       display="inline"
       id="g30"
       style="display:inline"><path
         d="m 386.572,154.743 c -0.656,3.103 -1.621,4.553 -3.072,4.553 -1.037,0 -2.109,-0.161 -3.178,-0.286 -0.006,2.252 -0.189,4.548 -0.449,6.856 1.451,0.193 2.922,0.415 4.275,0.415 2.424,0 4.363,-0.66 6.006,-2.276 2.248,-2.276 3.561,-5.503 3.896,-10.055 1.756,-12.984 2.717,-30.944 2.879,-53.562 -2.59,2.805 -5.221,5.548 -7.891,8.23 -0.636,22.397 -1.413,37.69 -2.466,46.125 z"
         id="path32"
         inkscape:connector-curvature="0"
         style="fill:#9bb4d1" /><path
         d="m 290.984,165.802 0,-52.126 18.977,0 0,-6.974 -18.977,0 0,-41.882 -6.973,0 0,41.882 -20.306,0 0,6.974 20.306,0 0,54.717 c -6.995,2.586 -14.783,5.023 -23.401,7.469 l 3.748,6.978 c 13.951,-4.226 30.025,-10.567 48.198,-19.168 l -1.295,-6.966 c -5.844,3.069 -12.503,6.159 -20.277,9.096 z"
         id="path34"
         inkscape:connector-curvature="0"
         style="fill:#9bb4d1" /><path
         d="m 337.873,197.129 c -3.871,-0.326 -6.494,-0.987 -7.612,-1.81 -1.634,-1.289 -2.443,-4.508 -2.443,-9.402 l 0,-63.145 26.632,-8.448 0,66.569 6.971,0 0,-68.838 19.904,-6.276 c 3.527,-3.473 6.938,-6.045 10.301,-9.646 l -30.205,8.784 0,-43.332 -6.971,0 0,45.616 -26.632,8.605 0,-35.729 -6.99,0 0,38.002 -19.642,6.32 1.791,6.325 17.851,-5.664 0,60.856 c 0,7.135 1.133,11.86 3.59,14.124 1.924,2.111 5.028,3.396 9.411,4.062 6.474,0.986 45.752,1.462 75.451,1.462 1.314,0 2.352,-0.053 3.52,-0.068 0.096,-2.341 0.102,-4.686 0.186,-7.014 -1.156,0.057 -2.355,0.097 -3.705,0.097 -26.959,0 -64.89,-0.479 -71.408,-1.45 z"
         id="path36"
         inkscape:connector-curvature="0"
         style="fill:#9bb4d1" /><rect
         x="466.20999"
         y="97.113998"
         width="88.806999"
         height="6.3449998"
         id="rect38"
         style="fill:#9bb4d1" /><path
         d="m 570.753,82.514 0,-6.316 -101.615,0 c 1.941,-4.222 3.895,-8.782 5.848,-13.318 l -6.35,-1.789 c -7.773,20.457 -19.133,38.804 -34.238,55.051 l 5.195,4.524 c 10.229,-11.055 18.994,-23.857 26.465,-38.151 l 104.695,0 z"
         id="path40"
         inkscape:connector-curvature="0"
         style="fill:#9bb4d1" /><path
         d="m 445.941,116.753 0,6.361 97.217,0 c 2.971,-2.082 5.926,-4.197 8.852,-6.361 l -106.069,0 z"
         id="path42"
         inkscape:connector-curvature="0"
         style="fill:#9bb4d1" /><path
         d="m 573.433,191.642 c -0.67,2.445 -1.346,4.363 -2.047,5.645 -0.961,1.631 -1.76,2.582 -2.438,2.582 -3.395,0 -6.15,-3.562 -8.26,-10.386 -3.9,-13.198 -6.006,-34.9 -6.299,-65.195 -2.264,1.655 -4.572,3.259 -6.865,4.879 0.807,30.21 3.203,51.594 7.492,64.385 3.566,9.242 8.09,13.964 13.932,13.964 2.285,0 4.561,-1.463 6.844,-4.077 1.871,-2.671 3.648,-8.17 5.465,-16.51 -0.037,-0.023 -0.068,-0.044 -0.102,-0.064 l -7.722,4.777 z"
         id="path44"
         inkscape:connector-curvature="0"
         style="fill:#9bb4d1" /></g><g
       display="inline"
       id="g46"
       style="display:inline"><path
         d="m 105.62,155.351 c 0,16.072 -13.029,29.099 -29.098,29.099 -16.071,0 -29.102,-13.026 -29.102,-29.099 0,-16.069 13.03,-29.096 29.102,-29.096 16.068,0 29.098,13.026 29.098,29.096 z"
         id="path48"
         inkscape:connector-curvature="0"
         style="fill:#9bb4d1" /><path
         d="m 60.117,200.161 -45.738,36.167 c 0,0 109.334,16.898 161.356,-32.675 0,0 -53.463,9.326 -115.618,-3.492 z"
         id="path50"
         inkscape:connector-curvature="0"
         style="fill:#9bb4d1" /><path
         d="M 37.174,48.28 69.567,18.224 c 0,0 64.681,-21.387 117.185,22.611 33.451,28.03 56.326,116.128 -11.017,162.817 l 0,0 c 0,0 1.601,-15.902 3.206,-40.599 2.166,-33.349 -1.172,-56.155 -16.295,-78.036 C 141.737,54.764 101.671,47.355 37.174,48.28 Z"
         id="path52"
         inkscape:connector-curvature="0"
         style="fill:#9bb4d1" /></g></g></svg>